<?xml version="1.0" encoding="UTF-8" standalone="no"?><!DOCTYPE svg PUBLIC "-//W3C//DTD SVG 1.1//EN" "http://www.w3.org/Graphics/SVG/1.1/DTD/svg11.dtd"><svg width="100%" height="100%" viewBox="0 0 1612 491" version="1.1" xmlns="http://www.w3.org/2000/svg" xmlns:xlink="http://www.w3.org/1999/xlink" xml:space="preserve" xmlns:serif="http://www.serif.com/" style="fill-rule:evenodd;clip-rule:evenodd;stroke-linejoin:round;stroke-miterlimit:1.41421;"><g><g><path d="M244.534,-0.002c134.649,0 243.968,109.81 243.968,245.066c0,135.255 -109.319,245.065 -243.968,245.065c-134.65,0 -243.968,-109.81 -243.968,-245.065c0,-135.256 109.318,-245.066 243.968,-245.066Zm0,46.103c109.318,0 198.071,89.152 198.071,198.963c0,109.81 -88.753,198.962 -198.071,198.962c-109.319,0 -198.072,-89.152 -198.072,-198.962c0,-109.811 88.753,-198.963 198.072,-198.963Z" style="fill:#fff;"/><g id="Ebene_11"><path d="M89.246,228.088c1.235,-4.843 4.518,-8.841 10.877,-16.582c3.014,-3.669 8.897,-10.827 14.663,-14.598c13.177,-8.614 26.19,0.156 59.241,3.717c17.143,1.852 30.542,1.304 40.43,0.906c23.924,-0.966 29.976,-3.987 54.006,-3.922c21.918,0.058 30.169,2.605 36.809,6.033c5.403,2.789 16.885,8.721 20.516,20.22c2.743,8.682 -2.176,10.468 0,25.645c1.326,9.241 2.325,16.207 7.773,21.661c2.834,2.839 5.668,4.058 6.395,7.563c0.937,4.514 -2.469,8.781 -4.21,10.908c-5.711,6.978 -13.463,9.604 -18.059,10.991c-16.053,4.844 -30.163,5.557 -38.663,5.676c-16.727,0.222 -26.15,0.347 -37.507,-4.249c-10.883,-4.404 -10.604,-7.905 -21.629,-14.227c-15.465,-8.867 -30.164,-10.094 -57.326,-12.068c-29.041,-2.113 -29.188,1.534 -39.373,-2.47c-6.981,-2.75 -13.615,-7.102 -19.167,-12.256c-10.685,-9.918 -17.36,-22.803 -14.776,-32.948Z" style="fill:#fff;fill-rule:nonzero;stroke:#fdfbfb;stroke-width:1px;"/><path d="M131.53,275.235c1.349,-3.568 14.441,-1.251 34.566,-1.697c8.539,-0.187 11.779,1.298 16.066,3.82c5.727,3.366 9.724,10.866 9.153,17.839c-0.9,11.025 -12.99,17.993 -23.422,24.005c-2.264,1.304 -4.746,2.716 -8.347,3.915c-8.432,2.808 -17.801,2.715 -17.801,2.715c0,0 -6.861,-4.241 -10.277,-10.25c-2.872,-5.055 -2.687,-10.266 -2.615,-11.769c0.2,-4.181 1.604,-7.969 3.242,-12.376c1.637,-4.406 2.482,-5.374 2.414,-7.844c-0.141,-4.923 -3.691,-6.478 -2.979,-8.358Z" style="fill:#fff;fill-rule:nonzero;stroke:#fdfbfb;stroke-width:1px;"/><path d="M164.821,318.63c1.351,2.032 1.961,4.668 2.058,5.094c0.418,1.866 1.011,4.504 -0.059,7.293c-1.588,4.141 -5.742,5.746 -6.277,5.944c-4.882,1.8 -9.57,-0.661 -12.89,-2.397c-2.991,-1.568 -5.43,-4.127 -10.307,-9.244c-3.056,-3.209 -3.524,-4.11 -3.447,-5.118c0.323,-4.215 9.863,-6.366 10.661,-6.538c6.382,-1.379 16.332,-0.945 20.261,4.966Z" style="fill:#fff;fill-rule:nonzero;stroke:#fdfbfb;stroke-width:1px;"/><path d="M325.759,295.719c1.81,4.351 2.895,8.969 3.212,13.671c0.193,2.771 0.106,5.554 -0.259,8.308c-1.033,7.563 -3.99,12.851 -4.773,14.2c-2.148,3.705 -4.865,8.371 -10.281,11.268c-1.526,0.815 -2.327,0.989 -14.962,2.56c-10.342,1.285 -12.811,1.544 -16.017,0.079c-1.091,-0.495 -5.788,-2.633 -6.304,-6.604c-0.338,-2.595 1.261,-4.785 1.761,-5.474c2.47,-3.395 7.244,-5.041 7.244,-5.041c1.557,-0.68 3.528,-1.861 4.235,-3.899c0.846,-2.434 -0.617,-4.645 -2.025,-8.452c-1.204,-3.265 -2.01,-6.665 -2.4,-10.123" style="fill:#fff;fill-rule:nonzero;stroke:#fdfbfb;stroke-width:1px;"/><path d="M287.618,349.266c-2.385,0 -4.078,-0.358 -5.961,-1.215c-5.817,-2.647 -7.409,-6.103 -7.731,-8.536c-0.309,-2.37 0.437,-4.808 2.216,-7.254c1.235,-1.698 3.035,-3.21 5.342,-4.495c0.695,-0.387 1.411,-0.738 2.143,-1.051c0.368,-0.154 0.64,-0.268 0.862,-0.345c1.081,-0.485 2.405,-1.285 2.794,-2.404c0.33,-0.952 -0.102,-2.076 -1.033,-4.321c-0.299,-0.724 -0.639,-1.544 -0.975,-2.453c-1.268,-3.452 -2.12,-7.043 -2.537,-10.696l4.905,-0.575c0.37,3.263 1.13,6.47 2.262,9.553c0.309,0.823 0.618,1.565 0.91,2.284c1.125,2.722 2.096,5.071 1.134,7.837c-0.792,2.279 -2.669,4.079 -5.58,5.351l-0.474,0.207l-0.058,0c-1.034,0.42 -4.077,1.792 -5.711,4.025c-0.375,0.516 -1.519,2.082 -1.309,3.705c0.219,1.684 1.953,3.344 4.879,4.676c2.482,1.13 4.322,1.005 14.688,-0.282c11.933,-1.483 12.982,-1.689 14.103,-2.288c4.798,-2.566 7.195,-6.692 9.312,-10.33c1.04,-1.789 3.55,-6.665 4.46,-13.29c0.339,-2.588 0.42,-5.205 0.241,-7.81c-0.298,-4.433 -1.321,-8.787 -3.028,-12.889l4.562,-1.894c1.915,4.599 3.062,9.482 3.396,14.453c0.202,2.938 0.109,5.889 -0.276,8.809c-0.987,7.228 -3.609,12.565 -5.083,15.103c-2.203,3.788 -5.219,8.975 -11.252,12.203c-1.973,1.055 -3.008,1.234 -15.824,2.833c-5.365,0.664 -8.781,1.089 -11.377,1.089Z" style="fill-rule:nonzero;stroke:#fdfbfb;stroke-width:1px;"/><path d="M118.481,227.972c10.789,1.081 14.903,1.4 15.366,1.317c0.022,-0.007 0.045,-0.007 0.067,0c0.485,0.217 -0.441,4.837 -2.498,7.923c-2.8,4.199 -5.978,2.986 -7.335,6.019c-1.52,3.396 2.161,5.597 3.079,13.106c0.455,3.666 0.103,7.387 -1.031,10.903c-0.617,1.852 -2.56,7.376 -7.852,11.025c-3.119,2.152 -6.65,2.707 -13.582,3.728c-4.697,0.691 -6.16,0.634 -13.992,1.279c-11.593,0.953 -14.651,1.592 -20.754,0.917c-6.928,-0.772 -9.179,-2.273 -10.536,-3.582c-2.235,-2.161 -4.445,-6.092 -3.432,-9.57c0.872,-3.011 3.297,-2.664 6.953,-7.308c1.889,-2.438 3.35,-5.178 4.322,-8.104c0.977,-2.959 0.549,-3.479 1.543,-8.603c1.033,-5.293 1.544,-7.94 2.726,-9.644c2.715,-3.934 5.557,-2.644 9.764,-7.1c3.11,-3.289 4.362,-6.975 4.845,-8.418c2.223,-6.756 0.173,-11.002 2.132,-12.155c1.131,-0.667 3.105,-0.596 9.039,4.877" style="fill:#fff;fill-rule:nonzero;stroke:#fdfbfb;stroke-width:1px;"/><path d="M74.746,286.938c-1.694,-0.003 -3.388,-0.102 -5.071,-0.296c-3.364,-0.365 -5.98,-0.943 -8,-1.754c-2.078,-0.827 -3.219,-1.776 -3.981,-2.512c-2.951,-2.84 -5.362,-7.667 -4.089,-12.029c0.693,-2.381 2.123,-3.443 3.512,-4.47c1.097,-0.812 2.34,-1.732 3.875,-3.678c1.707,-2.212 3.029,-4.696 3.91,-7.347c0.463,-1.421 0.556,-2.136 0.71,-3.431c0.128,-1.067 0.309,-2.525 0.761,-4.871c1.099,-5.623 1.65,-8.446 3.118,-10.575c1.764,-2.556 3.697,-3.445 5.402,-4.229c1.471,-0.678 2.862,-1.317 4.601,-3.159c2.794,-2.959 3.918,-6.375 4.286,-7.499c1.022,-3.104 1.033,-5.593 1.042,-7.592c0.011,-2.284 0.022,-4.646 2.183,-5.919c1.423,-0.839 3.101,-0.834 4.984,0.012c1.821,0.818 4.039,2.47 6.982,5.178c0.507,0.468 0.795,1.126 0.795,1.815c0,1.355 -1.114,2.47 -2.469,2.47c-0.621,0 -1.219,-0.234 -1.675,-0.654c-3.396,-3.135 -5.093,-4.094 -5.828,-4.385c-0.026,0.432 -0.029,1.006 -0.032,1.504c-0.01,2.1 -0.025,5.27 -1.289,9.107c-0.456,1.389 -1.837,5.586 -5.387,9.346c-2.397,2.539 -4.465,3.49 -6.128,4.255c-1.5,0.69 -2.406,1.107 -3.395,2.549c-0.885,1.279 -1.399,3.92 -2.336,8.714c-0.423,2.161 -0.578,3.468 -0.704,4.513c-0.168,1.389 -0.308,2.501 -0.926,4.391c-1.058,3.2 -2.655,6.195 -4.721,8.857c-1.372,1.758 -2.994,3.304 -4.816,4.59c-1.176,0.871 -1.492,1.13 -1.712,1.88c-0.498,1.715 0.295,4.705 2.779,7.1c0.665,0.642 2.224,2.146 9.092,2.905c4.477,0.496 7.142,0.252 13.583,-0.335c1.909,-0.174 4.072,-0.372 6.7,-0.588c2.493,-0.205 4.356,-0.339 5.855,-0.449c3.241,-0.235 4.86,-0.353 7.98,-0.812c6.819,-1.003 9.944,-1.523 12.545,-3.317c3.133,-2.161 5.458,-5.45 6.912,-9.778c1.014,-3.167 1.33,-6.517 0.926,-9.818c-0.389,-3.18 -1.306,-5.248 -2.115,-7.069c-0.994,-2.237 -2.02,-4.552 -0.771,-7.346c1.028,-2.29 2.769,-3.087 4.167,-3.716c1.235,-0.559 2.289,-1.041 3.366,-2.655c0.871,-1.306 1.487,-2.943 1.843,-4.209c-2.171,-0.165 -6.008,-0.514 -12.965,-1.21c-1.262,-0.119 -2.238,-1.191 -2.238,-2.459c0,-1.355 1.114,-2.47 2.469,-2.47c0.087,0 0.175,0.005 0.261,0.014c11.845,1.186 14.347,1.318 14.86,1.318c0.456,-0.051 0.918,0.021 1.338,0.209c0.709,0.325 1.24,0.947 1.452,1.698c0.273,0.949 0.105,2.469 -0.501,4.522c-0.34,1.148 -1.104,3.365 -2.407,5.319c-1.852,2.789 -3.923,3.727 -5.433,4.411c-1.185,0.539 -1.462,0.706 -1.698,1.235c-0.318,0.707 -0.123,1.298 0.772,3.322c0.855,1.926 2.025,4.564 2.502,8.473c0.502,4.032 0.113,8.125 -1.141,11.99c-1.801,5.362 -4.758,9.491 -8.797,12.271c-3.659,2.523 -7.789,3.13 -14.631,4.138c-3.299,0.485 -5.094,0.617 -8.335,0.852c-1.488,0.108 -3.339,0.242 -5.808,0.444c-2.606,0.215 -4.757,0.411 -6.656,0.585c-4.121,0.397 -6.837,0.644 -9.508,0.644Z" style="fill-rule:nonzero;stroke:#fdfbfb;stroke-width:1px;"/><path d="M123.189,273.28c7.096,-0.472 14.093,-1.916 20.797,-4.29c11.304,-4.013 18.83,-9.66 24.415,-13.92c6.515,-4.979 12.459,-10.663 17.723,-16.949" style="fill:#fff;fill-rule:nonzero;stroke:#fdfbfb;stroke-width:1px;"/><path d="M123.186,275.749c-0.027,0.001 -0.054,0.002 -0.081,0.002c-1.356,0 -2.471,-1.116 -2.471,-2.471c0,-1.325 1.065,-2.426 2.39,-2.47c6.87,-0.457 13.646,-1.856 20.136,-4.155c11.17,-3.965 18.736,-9.738 23.742,-13.556c6.368,-4.867 12.181,-10.421 17.332,-16.562c0.468,-0.572 1.17,-0.904 1.909,-0.904c1.355,0 2.47,1.115 2.47,2.47c0,0.59 -0.212,1.161 -0.596,1.609c-5.384,6.422 -11.461,12.23 -18.119,17.319c-5.248,4.014 -13.186,10.061 -25.086,14.285c-6.916,2.45 -14.135,3.94 -21.455,4.429c-0.059,0.003 -0.116,0.004 -0.171,0.004Z" style="fill-rule:nonzero;stroke:#fdfbfb;stroke-width:1px;"/><path d="M166.704,256.951c4.832,5.229 9.221,10.85 13.12,16.807c5.157,7.872 11.531,17.792 14.183,31.548c2.425,12.573 1.317,26.151 -3.15,27.588c-1.207,0.389 -1.872,-0.363 -4.995,-0.034c-2.761,0.288 -5.422,1.195 -7.784,2.655c-2.144,1.363 -5.275,3.352 -5.993,6.873c-0.5,2.442 0.375,4.584 1.46,7.24c0.954,2.339 1.431,3.509 2.644,4.476c1.343,1.081 2.636,1.166 8.502,1.57c5.945,0.411 5.916,0.411 5.939,0.411c1.321,0.021 6.765,0.045 14.629,-2.062c4.893,-1.312 11.576,-3.104 18.831,-8.138c3.874,-2.685 8.591,-5.959 12.147,-12.105c4.686,-8.1 4.618,-16.46 4.559,-19.365c-0.154,-7.74 -2.469,-9.099 -1.194,-14.612c0.558,-2.416 1.557,-4.549 7.481,-12.281c2.76,-3.601 6.54,-8.358 11.291,-13.819" style="fill:#fff;fill-rule:nonzero;stroke:#fdfbfb;stroke-width:1px;"/><path d="M191.122,358.567c-0.188,0 -0.366,0 -0.531,0c-0.074,0 -0.074,0 -0.671,-0.042l-5.402,-0.375l-0.027,0c-6.232,-0.431 -7.907,-0.546 -9.85,-2.105c-1.712,-1.374 -2.379,-3.004 -3.386,-5.474c-1.153,-2.824 -2.242,-5.491 -1.593,-8.668c0.926,-4.548 4.784,-6.998 7.089,-8.463c2.684,-1.669 5.713,-2.706 8.856,-3.031c1.326,-0.156 2.667,-0.13 3.986,0.075c0.191,0.027 0.427,0.061 0.521,0.062c0.391,-0.154 1.853,-1.806 2.448,-7.518c0.522,-5.038 0.166,-11.325 -0.977,-17.249c-2.613,-13.558 -9.092,-23.444 -13.823,-30.661c-3.83,-5.84 -8.137,-11.352 -12.879,-16.48c-0.417,-0.455 -0.648,-1.05 -0.648,-1.667c0,-1.355 1.115,-2.47 2.469,-2.47c0.684,0 1.338,0.284 1.805,0.783c4.927,5.331 9.404,11.061 13.383,17.133c4.956,7.563 11.745,17.92 14.545,32.435c1.234,6.379 1.608,13.192 1.038,18.693c-0.697,6.747 -2.668,10.687 -5.865,11.713c-1.096,0.354 -1.957,0.232 -2.718,0.124c-0.919,-0.148 -1.854,-0.166 -2.778,-0.053c-2.384,0.249 -4.682,1.031 -6.724,2.288c-1.955,1.235 -4.389,2.789 -4.899,5.282c-0.332,1.628 0.258,3.192 1.328,5.813c0.904,2.214 1.222,2.941 1.903,3.488c0.68,0.546 1.617,0.651 7.1,1.031l0.028,0l5.402,0.373l0.463,0.033c1.92,0.026 6.979,-0.127 13.891,-1.981c4.712,-1.262 11.164,-2.991 18.067,-7.779c3.814,-2.647 8.137,-5.646 11.422,-11.313c2.943,-5.094 4.366,-11.172 4.227,-18.079c-0.063,-3.178 -0.517,-5.182 -0.926,-6.946c-0.54,-2.389 -1.051,-4.646 -0.213,-8.267c0.675,-2.909 1.925,-5.39 7.927,-13.228c3.606,-4.707 7.438,-9.396 11.388,-13.937c0.468,-0.521 1.137,-0.819 1.837,-0.819c1.355,0 2.47,1.114 2.47,2.469c0,0.582 -0.206,1.146 -0.581,1.591c-3.883,4.464 -7.649,9.074 -11.193,13.7c-5.882,7.679 -6.605,9.475 -7.035,11.337c-0.584,2.52 -0.283,3.859 0.217,6.064c0.431,1.899 0.965,4.262 1.039,7.942c0.154,7.822 -1.488,14.769 -4.89,20.65c-3.832,6.624 -8.847,10.104 -12.877,12.899c-7.608,5.278 -14.541,7.135 -19.602,8.489c-6.836,1.821 -12.013,2.138 -14.761,2.138Z" style="fill-rule:nonzero;stroke:#fdfbfb;stroke-width:1px;"/><path d="M305.873,239.697c4.365,15.757 10.587,27.165 15.498,34.672c3.752,5.735 8.193,10.916 17.077,21.279c4.029,4.7 13.084,15.219 24.877,26.815c2.83,2.778 11.844,11.555 11.844,11.555c-0.994,0.855 -2.431,2.066 -4.2,3.482c-5.26,4.209 -5.991,4.829 -7.129,6.822c-0.537,0.941 -1.935,5.416 1.206,7.663c7.473,5.348 9.944,4.68 12.738,4.913c4.491,0.374 7.62,0 9.219,0c1.101,0 9.693,-0.117 14.884,-4.826c2.076,-1.883 4.867,-5.642 4.448,-24.482c-0.447,-20.191 -3.815,-23.218 -2.437,-38.278c0.772,-8.384 2.414,-17.298 2.414,-17.298c1.852,-10.051 3.07,-12.258 3.141,-17.205c0.09,-6.294 -2.03,-10.042 -6.209,-20.289c-9.896,-24.264 -7.914,-22.458 -11.462,-28.637c-5.742,-10.001 -7.116,-8.081 -15.64,-21.97c-4.469,-7.277 -5.711,-10.452 -10.053,-14.565c-6.112,-5.801 -12.615,-8.014 -16.67,-9.436c-29.247,-10.245 -26.784,-12.726 -42.367,-16.549c-19.551,-4.797 -34.588,-3.627 -56.066,-1.96c-23.566,1.829 -46.621,3.618 -72.662,15.819c-5.754,2.698 -17.207,9.698 -40.1,23.697c-7.037,4.303 -15.1,9.317 -24.841,17.113c-6.56,5.248 -12.535,13.007 -16.068,16.452" style="fill:#fff;fill-rule:nonzero;stroke:#fdfbfb;stroke-width:1px;"/><path d="M381.832,359.534c-1.248,0 -2.671,-0.043 -4.253,-0.176c-0.32,-0.026 -0.652,-0.04 -1.004,-0.055c-2.624,-0.108 -5.885,-0.242 -12.965,-5.31c-1.985,-1.421 -3.056,-3.684 -3.013,-6.368c0.03,-1.852 0.574,-3.604 1.102,-4.529c1.409,-2.469 2.498,-3.338 7.732,-7.526c0.691,-0.552 1.38,-1.114 2.066,-1.684c-2.82,-2.746 -7.912,-7.706 -9.901,-9.662c-12.106,-11.905 -21.489,-22.844 -25.02,-26.969c-8.942,-10.43 -13.428,-15.665 -17.269,-21.535c-2.129,-3.257 -4.108,-6.638 -5.93,-10.133c-4.1,-7.867 -7.41,-16.314 -9.881,-25.231c-0.06,-0.215 -0.09,-0.437 -0.09,-0.659c0,-1.355 1.115,-2.47 2.47,-2.47c1.107,0 2.085,0.744 2.38,1.81c1.449,5.23 3.197,10.289 5.233,15.154c2.787,6.66 6.113,12.956 9.952,18.826c3.664,5.602 8.083,10.755 16.884,21.023c3.496,4.076 12.779,14.904 24.734,26.662c2.794,2.747 11.746,11.459 11.836,11.545l1.935,1.885l-2.048,1.759c-1.389,1.195 -2.827,2.385 -4.266,3.536c-5.22,4.177 -5.648,4.578 -6.527,6.119c-0.01,0.018 -1.305,3.142 0.497,4.43c5.883,4.21 8.126,4.303 10.296,4.392c0.388,0.017 0.787,0.033 1.21,0.068c2.434,0.192 4.878,0.21 7.315,0.054c0.651,-0.034 1.213,-0.061 1.698,-0.063c0.884,0 8.765,-0.136 13.23,-4.186c1.11,-1.006 4.058,-3.681 3.638,-22.598c-0.199,-9.016 -0.981,-14.489 -1.673,-19.318c-0.822,-5.756 -1.532,-10.725 -0.753,-19.237c0.772,-8.4 2.377,-17.153 2.445,-17.522c0.746,-4.042 1.389,-6.808 1.897,-9.029c0.75,-3.25 1.164,-5.041 1.202,-7.761c0.068,-4.723 -1.234,-7.83 -4.084,-14.638c-0.579,-1.389 -1.235,-2.95 -1.943,-4.684c-4.931,-12.094 -6.93,-17.751 -8.125,-21.132c-1.195,-3.382 -1.516,-4.29 -3.192,-7.208c-2.633,-4.588 -4.306,-6.556 -6.243,-8.835c-2.257,-2.657 -4.814,-5.667 -9.36,-13.072c-1.096,-1.784 -1.999,-3.325 -2.797,-4.683c-2.469,-4.195 -3.818,-6.507 -6.85,-9.385c-5.626,-5.337 -11.618,-7.434 -15.589,-8.822l-0.208,-0.073c-14.846,-5.2 -21.669,-8.455 -26.653,-10.832c-4.813,-2.295 -7.992,-3.811 -15.486,-5.649c-19.162,-4.703 -33.531,-3.587 -55.282,-1.898c-23.743,1.842 -46.17,3.584 -71.806,15.589c-5.638,2.644 -17.074,9.637 -39.857,23.564c-7.662,4.686 -15.305,9.505 -24.589,16.937c-4.222,3.383 -8.264,7.923 -11.506,11.568c-1.685,1.893 -3.139,3.526 -4.374,4.73c-0.46,0.441 -1.073,0.688 -1.711,0.688c-1.355,0 -2.469,-1.115 -2.469,-2.469c0,-0.659 0.263,-1.292 0.732,-1.756c1.11,-1.08 2.511,-2.656 4.133,-4.476c3.373,-3.784 7.564,-8.489 12.115,-12.135c9.51,-7.612 17.298,-12.523 25.097,-17.287c22.943,-14.03 34.456,-21.07 40.339,-23.826c11.885,-5.569 24.273,-9.491 37.862,-11.992c12.092,-2.224 24.079,-3.155 35.655,-4.053c21.428,-1.664 36.909,-2.866 56.842,2.025c7.986,1.959 11.53,3.649 16.435,5.989c4.88,2.327 11.565,5.516 26.159,10.628l0.207,0.073c4.098,1.434 10.958,3.834 17.351,9.901c3.538,3.357 5.197,6.187 7.718,10.468c0.786,1.338 1.676,2.856 2.746,4.598c4.348,7.082 6.774,9.937 8.915,12.458c2.006,2.361 3.903,4.593 6.764,9.569c1.898,3.31 2.352,4.592 3.563,8.026c1.18,3.339 3.155,8.928 8.042,20.913c0.699,1.713 1.351,3.269 1.925,4.641c2.932,7.006 4.55,10.865 4.468,16.616c-0.046,3.241 -0.557,5.456 -1.329,8.798c-0.501,2.173 -1.127,4.879 -1.852,8.815c-0.017,0.088 -1.636,8.906 -2.383,17.075c-0.727,7.935 -0.087,12.415 0.724,18.087c0.71,4.967 1.515,10.596 1.722,19.911c0.192,8.633 -0.256,14.936 -1.366,19.267c-1.049,4.097 -2.557,5.887 -3.892,7.1c-5.711,5.18 -14.779,5.464 -16.539,5.467c-0.361,0 -0.869,0.027 -1.457,0.057c-0.988,0.042 -2.235,0.105 -3.731,0.105Z" style="fill-rule:nonzero;stroke:#fdfbfb;stroke-width:1px;"/><path d="M239.207,301.404c6.369,1.863 12.88,3.205 19.468,4.013c7.552,0.926 13.284,0.91 18.89,0.896c6.174,-0.015 12.279,-0.03 20.342,-1.143c5.783,-0.8 12.058,-1.698 19.781,-4.537c6.014,-2.209 11.73,-5.154 17.02,-8.768" style="fill:#fff;fill-rule:nonzero;stroke:#fdfbfb;stroke-width:1px;"/><path d="M275.494,308.774c-5.026,0 -10.354,-0.09 -17.12,-0.917c-6.72,-0.825 -13.362,-2.193 -19.86,-4.09l1.389,-4.74c6.241,1.819 12.619,3.13 19.071,3.92c7.399,0.906 13.087,0.891 18.585,0.878c6.23,-0.015 12.113,-0.031 20.01,-1.12c5.455,-0.753 11.636,-1.607 19.269,-4.408c5.821,-2.141 11.356,-4.992 16.478,-8.49l2.778,4.08c-5.456,3.732 -11.353,6.775 -17.555,9.06c-8.131,2.984 -14.875,3.916 -20.294,4.665c-8.227,1.136 -14.554,1.151 -20.672,1.166l-2.079,-0.004Z" style="fill-rule:nonzero;stroke:#fdfbfb;stroke-width:1px;"/><path d="M125.944,273.047c1.252,0.321 4.515,1.346 6.589,4.408c2.007,2.96 1.777,6.165 1.581,8.463c-0.516,6.019 -3.303,6.748 -4.713,13.575c-0.67,3.201 -0.765,6.497 -0.282,9.731c0.702,4.501 2.406,7.647 3.53,9.678c2.53,4.574 5.319,7.216 9.891,11.474c5.366,5 8.12,7.508 11.543,7.905c0.52,0.06 6.4,0.643 10.42,-3.598c2.303,-2.43 2.879,-5.262 3.039,-6.349c0.266,-1.79 0.132,-3.784 -4.25,-13.014c-3.705,-7.818 -4.81,-8.908 -5.611,-9.587c-3.516,-2.982 -7.717,-3.519 -9.991,-3.618" style="fill:#fff;fill-rule:nonzero;stroke:#fdfbfb;stroke-width:1px;"/><path d="M155.258,340.806c-0.487,0.003 -0.974,-0.021 -1.459,-0.073c-4.3,-0.497 -7.552,-3.528 -12.943,-8.549c-4.41,-4.107 -7.596,-7.075 -10.368,-12.086c-1.057,-1.91 -3.025,-5.468 -3.809,-10.495c-0.527,-3.528 -0.422,-7.121 0.308,-10.612c0.741,-3.59 1.828,-5.657 2.786,-7.48c0.959,-1.822 1.656,-3.147 1.885,-5.806c0.165,-1.93 0.39,-4.572 -1.164,-6.867c-1.48,-2.186 -3.869,-3.07 -5.161,-3.404l1.234,-4.784c1.968,0.506 5.627,1.884 8.019,5.416c2.536,3.744 2.198,7.697 1.996,10.059c-0.309,3.653 -1.389,5.711 -2.433,7.685c-0.886,1.682 -1.721,3.27 -2.315,6.174c-0.611,2.912 -0.7,5.91 -0.261,8.853c0.65,4.167 2.278,7.1 3.251,8.863c2.29,4.138 4.67,6.445 9.415,10.863c5.171,4.816 7.563,6.958 10.145,7.254c0.207,0.025 5.128,0.551 8.344,-2.843c1.698,-1.792 2.226,-3.908 2.388,-5.008c0.147,-0.994 0.349,-2.354 -4.038,-11.597c-3.607,-7.598 -4.567,-8.413 -4.977,-8.761c-2.739,-2.315 -6.134,-2.932 -8.5,-3.034l0.213,-4.939c4.499,0.194 8.47,1.647 11.482,4.201c1.193,1.013 2.488,2.494 6.243,10.411c4.681,9.86 4.806,12.118 4.464,14.435c-0.249,1.677 -1.058,4.908 -3.689,7.685c-3.698,3.897 -8.605,4.439 -11.056,4.439Z" style="fill-rule:nonzero;stroke:#fdfbfb;stroke-width:1px;"/><path d="M165.47,320.952c4.61,0.583 8.415,-0.028 10.958,-2.315c2.204,-1.979 4.885,-1.559 7.627,-5.403c3.192,-4.466 2.145,-6.303 4.638,-10.244c1.184,-1.87 2.247,-4.391 2.624,-7.802" style="fill:#fff;fill-rule:nonzero;stroke:#fdfbfb;stroke-width:1px;"/><path d="M168.529,323.63c-1.127,-0.004 -2.252,-0.078 -3.37,-0.222l0.618,-4.901c4.133,0.522 7.161,-0.049 8.998,-1.698c1.132,-1.014 2.315,-1.543 3.354,-2.006c1.457,-0.649 2.609,-1.163 3.913,-2.987c1.489,-2.084 1.881,-3.419 2.335,-4.965c0.423,-1.439 0.902,-3.07 2.226,-5.165c1.213,-1.917 1.973,-4.19 2.257,-6.753l4.908,0.544c-0.366,3.315 -1.372,6.292 -2.99,8.85c-0.955,1.51 -1.283,2.624 -1.662,3.914c-0.506,1.727 -1.081,3.683 -3.055,6.447c-2.087,2.918 -4.214,3.859 -5.922,4.631c-0.844,0.377 -1.513,0.674 -2.064,1.168c-2.33,2.086 -5.533,3.143 -9.546,3.143Z" style="fill-rule:nonzero;stroke:#fdfbfb;stroke-width:1px;"/><circle cx="93.623" cy="251.154" r="4.191" style="stroke:#fdfbfb;stroke-width:1px;"/><circle cx="77.463" cy="241.658" r="4.191" style="stroke:#fdfbfb;stroke-width:1px;"/><path d="M61.466,270.542c-2.653,0.713 0.016,6.505 1.928,6.826c2.067,0.348 6.298,-4.911 4.118,-6.226c-1.895,-1.142 -3.948,-1.162 -6.046,-0.6Z" style="fill-rule:nonzero;stroke:#fdfbfb;stroke-width:1px;"/></g><text x="514.672px" y="358.211px" style="font-family:'Arial-BoldMT', 'Arial', sans-serif;font-weight:700;font-size:300px;fill:#fff;">Nanook</text></g></g></svg>