<svg xmlns="http://www.w3.org/2000/svg" viewBox="0 0 2323.75 1438.62" role="img">
    <defs>
        <style>
                      .cls-1 {
                        fill: #fff;
                      }
        </style>
    </defs>
    <title>Nanook - The Open Source Test Tooling</title>
    <g id="Ebene_11" data-name="Ebene 11">
        <path class="cls-1" d="M233.16,587c8-31.38,29.27-57.28,70.47-107.43,19.53-23.77,57.64-70.15,95-94.58C484,329.18,568.31,386,782.44,409.07c111.07,12,197.88,8.45,261.94,5.87,155-6.26,194.21-25.83,349.9-25.41,142,.38,195.46,16.88,238.48,39.09,35,18.07,109.39,56.5,132.92,131,17.77,56.25-14.1,67.82,0,166.15,8.59,59.87,15.06,105,50.36,140.34,18.36,18.39,36.72,26.29,41.43,49,6.07,29.24-16,56.89-27.28,70.67-37,45.21-87.22,62.22-117,71.21-104,31.38-195.42,36-250.49,36.77-108.37,1.44-169.42,2.25-243-27.53-70.51-28.53-68.7-51.21-140.13-92.17-100.2-57.45-195.43-65.4-371.41-78.19-188.15-13.69-189.1,9.94-255.09-16C320.81,827.77,207.72,686.88,233.16,587Z" />
        <path class="cls-1" d="M507.11,892.46c8.74-23.12,93.56-8.11,223.95-11,55.32-1.21,76.31,8.41,104.09,24.75,37.1,21.81,63,70.4,59.3,115.58-5.83,71.43-84.16,116.57-151.75,155.52-14.67,8.45-30.75,17.6-54.08,25.37-54.63,18.19-115.33,17.59-115.33,17.59h0s-44.45-27.48-66.58-66.41c-18.61-32.75-17.41-66.51-16.94-76.25,1.29-27.09,10.39-51.63,21-80.18s16.08-34.82,15.64-50.82C525.5,914.71,502.5,904.64,507.11,892.46Z" />
        <path class="cls-1" d="M722.8,1173.61c8.75,13.16,12.7,30.24,13.33,33,2.71,12.09,6.55,29.18-.38,47.25-10.29,26.83-37.2,37.23-40.67,38.51-31.63,11.66-62-4.28-83.51-15.53-19.38-10.16-35.18-26.74-66.78-59.89-19.8-20.79-22.83-26.63-22.33-33.16,2.09-27.31,63.9-41.24,69.07-42.36C632.88,1132.5,697.34,1135.31,722.8,1173.61Z" />
        <path class="cls-1" d="M1765.49,1025.17a279.66,279.66,0,0,1,20.81,88.57,268.35,268.35,0,0,1-1.68,53.83c-6.69,49-25.85,83.26-30.92,92-13.92,24-31.52,54.23-66.61,73-9.89,5.28-15.08,6.41-96.94,16.59-67,8.32-83,10-103.77.51-7.07-3.21-37.5-17.06-40.84-42.79-2.19-16.81,8.17-31,11.41-35.46,16-22,46.93-32.66,46.93-32.66h0c10.09-4.41,22.86-12.06,27.44-25.26,5.48-15.77-4-30.1-13.12-54.76a280.47,280.47,0,0,1-15.55-65.59" />
        <path d="M1518.38,1372.09c-15.45,0-26.42-2.32-38.62-7.87-37.69-17.15-48-39.54-50.09-55.3-2-15.36,2.83-31.15,14.36-47,8-11,19.66-20.8,34.61-29.12a147.18,147.18,0,0,1,13.88-6.81c2.39-1,4.15-1.74,5.59-2.24,7-3.14,15.58-8.32,18.1-15.57,2.14-6.17-.66-13.45-6.69-28-1.94-4.69-4.14-10-6.32-15.89a299.33,299.33,0,0,1-16.44-69.3l31.78-3.72a266.8,266.8,0,0,0,14.66,61.89c2,5.33,4,10.14,5.89,14.8,7.29,17.63,13.58,32.85,7.35,50.77-5.13,14.77-17.29,26.43-36.15,34.67l-3.07,1.34h-.38c-6.7,2.72-26.41,11.61-37,26.08-2.43,3.34-9.84,13.49-8.48,24,1.42,10.91,12.65,21.67,31.61,30.3,16.08,7.32,28,6.51,95.16-1.83,77.31-9.61,84.11-10.94,91.37-14.82,31.09-16.63,46.62-43.36,60.33-66.93,6.74-11.59,23-43.18,28.9-86.1a255.06,255.06,0,0,0,1.56-50.6,263.19,263.19,0,0,0-19.62-83.51l29.56-12.27a295.05,295.05,0,0,1,22,93.64,286.06,286.06,0,0,1-1.79,57.07c-6.39,46.83-23.38,81.41-32.93,97.85-14.27,24.54-33.81,58.15-72.9,79.06-12.78,6.84-19.49,8-102.52,18.36C1557.33,1369.34,1535.2,1372.09,1518.38,1372.09Z" />
        <path class="cls-1" d="M422.57,586.25c69.9,7,96.55,9.07,99.55,8.53a.8.8,0,0,1,.44,0c3.14,1.41-2.86,31.34-16.19,51.33-18.14,27.21-38.73,19.35-47.52,39-9.85,22,14,36.26,19.95,84.91a164.29,164.29,0,0,1-6.68,70.64c-4,12-16.59,47.79-50.87,71.43-20.21,13.94-43.09,17.54-88,24.15-30.43,4.48-39.91,4.11-90.65,8.29-75.11,6.17-94.92,10.31-134.46,5.94-44.89-5-59.47-14.73-68.26-23.21-14.48-14-28.8-39.47-22.24-62C23.29,845.75,39,848,62.69,817.91a176.6,176.6,0,0,0,28-52.5c6.33-19.17,3.56-22.54,10-55.74,6.69-34.29,10-51.44,17.66-62.48,17.59-25.49,36-17.13,63.26-46C201.76,579.88,209.87,556,213,546.65c14.4-43.77,1.12-71.28,13.81-78.75,7.33-4.32,20.12-3.86,58.56,31.6" />
        <path d="M139.22,968.28a291.09,291.09,0,0,1-32.86-1.92C84.57,964,67.62,960.25,54.53,955c-13.46-5.36-20.85-11.51-25.79-16.28C9.62,920.32-6,889.05,2.25,860.79,6.74,845.36,16,838.48,25,831.83c7.11-5.26,15.16-11.22,25.11-23.83a161,161,0,0,0,25.33-47.6c3-9.21,3.6-13.84,4.6-22.23.83-6.91,2-16.36,4.93-31.56,7.12-36.43,10.69-54.72,20.2-68.51,11.43-16.56,23.95-22.32,35-27.4,9.53-4.39,18.54-8.53,29.81-20.47,18.1-19.17,25.38-41.3,27.77-48.58,6.62-20.11,6.69-36.24,6.75-49.19.07-14.8.14-30.1,14.14-38.35,9.22-5.43,20.09-5.4,32.29.08,11.8,5.3,26.17,16,45.24,33.55a16,16,0,0,1-21.7,23.52c-22-20.31-33-26.52-37.76-28.41-.17,2.8-.19,6.52-.21,9.75-.06,13.6-.16,34.14-8.35,59-2.95,9-11.9,36.19-34.9,60.55-15.53,16.45-28.93,22.61-39.7,27.57-9.72,4.47-15.59,7.17-22,16.51-5.73,8.29-9.06,25.4-15.13,56.46-2.74,14-3.75,22.47-4.56,29.24-1.09,9-2,16.2-6,28.45a191.86,191.86,0,0,1-30.59,57.38,147.44,147.44,0,0,1-31.2,29.74c-7.62,5.64-9.67,7.32-11.09,12.18-3.23,11.11,1.91,30.48,18,46,4.31,4.16,14.41,13.9,58.91,18.82,29,3.21,46.27,1.63,88-2.17,12.37-1.13,26.38-2.41,43.41-3.81,16.15-1.33,28.22-2.2,37.93-2.91,21-1.52,31.49-2.29,51.7-5.26,44.18-6.5,64.43-9.87,81.28-21.49,20.3-14,35.36-35.31,44.78-63.35a149.15,149.15,0,0,0,6-63.61c-2.52-20.6-8.46-34-13.7-45.8-6.44-14.49-13.09-29.49-5-47.59,6.66-14.84,17.94-20,27-24.08,8-3.62,14.83-6.74,21.81-17.2,5.64-8.46,9.63-19.07,11.94-27.27-14.07-1.07-38.93-3.33-84-7.84a16,16,0,1,1,3.19-31.84c76.74,7.68,92.95,8.54,96.27,8.54a16.66,16.66,0,0,1,8.67,1.35,17.26,17.26,0,0,1,9.41,11c1.77,6.15.68,16-3.25,29.3-2.2,7.44-7.15,21.8-15.59,34.46-12,18.07-25.42,24.15-35.2,28.58-7.68,3.49-9.47,4.57-11,8-2.06,4.58-.8,8.41,5,21.52,5.54,12.48,13.12,29.57,16.21,54.9a179.8,179.8,0,0,1-7.39,77.68c-11.67,34.74-30.83,61.49-57,79.5-23.7,16.35-50.46,20.28-94.79,26.81-21.37,3.14-33,4-54,5.52-9.64.7-21.63,1.57-37.63,2.88-16.88,1.39-30.82,2.66-43.12,3.79C174.12,966.68,156.52,968.28,139.22,968.28ZM525,610.52h0Z" />
        <path class="cls-1" d="M453.07,879.79A503.77,503.77,0,0,0,587.81,852c73.24-26,122-62.59,158.18-90.19A720.12,720.12,0,0,0,860.82,652" />
        <path d="M453.05,895.79a16,16,0,0,1-1.05-32,487.77,487.77,0,0,0,130.46-26.92c72.37-25.69,121.39-63.09,153.82-87.83A706.22,706.22,0,0,0,848.57,641.74a16,16,0,1,1,24.51,20.57A738,738,0,0,1,755.69,774.52c-34,26-85.43,65.18-162.53,92.55a519.83,519.83,0,0,1-139,28.69C453.78,895.78,453.41,895.79,453.05,895.79Z" />
        <path class="cls-1" d="M735,774A831,831,0,0,1,820,882.89c33.41,51,74.71,115.27,91.89,204.39,15.71,81.46,8.53,169.43-20.41,178.74-7.82,2.52-12.13-2.35-32.36-.22A119.54,119.54,0,0,0,808.69,1283c-13.89,8.83-34.18,21.72-38.83,44.53-3.24,15.82,2.43,29.7,9.46,46.91,6.18,15.15,9.27,22.73,17.13,29,8.7,7,17.08,7.55,55.08,10.17,38.52,2.66,38.33,2.66,38.48,2.66,8.56.14,43.83.29,94.78-13.36,31.7-8.5,75-20.11,122-52.72,25.1-17.4,55.66-38.61,78.7-78.43,30.36-52.48,29.92-106.64,29.54-125.46-1-50.15-16-58.95-7.74-94.67,3.62-15.65,10.09-29.47,48.47-79.57,17.88-23.33,42.37-54.15,73.15-89.53" />
        <path d="M893.2,1432.35c-1.22,0-2.37,0-3.44,0-.48,0-.48,0-4.35-.27l-35-2.43h-.17c-40.38-2.79-51.23-3.54-63.82-13.64-11.09-8.9-15.41-19.46-21.94-35.46-7.47-18.3-14.52-35.58-10.32-56.16,6-29.47,31-45.34,45.93-54.83a134.9,134.9,0,0,1,57.38-19.64,95.34,95.34,0,0,1,25.82.49c1.24.17,2.77.39,3.38.4,2.53-1,12-11.7,15.86-48.71,3.38-32.64,1.07-73.37-6.33-111.75-16.93-87.84-58.91-151.89-89.56-198.65a817.41,817.41,0,0,0-83.44-106.77,16,16,0,0,1,23.49-21.73,849.43,849.43,0,0,1,86.71,111c32.11,49,76.09,116.1,94.23,210.14,8,41.33,10.42,85.47,6.73,121.11-4.52,43.71-17.29,69.24-38,75.89-7.1,2.29-12.68,1.5-17.61.8a64,64,0,0,0-18-.34,103.63,103.63,0,0,0-43.56,14.82c-12.67,8-28.44,18.07-31.74,34.22-2.15,10.55,1.67,20.68,8.6,37.66,5.86,14.35,7.92,19.06,12.33,22.6s10.48,4.22,46,6.68h.18l35,2.42,3,.21c12.44.17,45.22-.82,90-12.83,30.53-8.18,72.33-19.38,117.05-50.4,24.71-17.15,52.72-36.58,74-73.3,19.07-33,28.29-72.38,27.39-117.13-.41-20.59-3.35-33.57-6-45-3.5-15.48-6.81-30.1-1.38-53.56,4.37-18.85,12.47-34.92,51.36-85.7,23.36-30.5,48.19-60.88,73.78-90.3a16,16,0,0,1,24.14,21c-25.16,28.92-49.56,58.79-72.52,88.76-38.11,49.75-42.79,61.39-45.58,73.45-3.78,16.33-1.83,25,1.41,39.29,2.79,12.3,6.25,27.61,6.73,51.45,1,50.68-9.64,95.69-31.68,133.79-24.83,42.92-57.32,65.46-83.43,83.57-49.29,34.2-94.21,46.23-127,55C944.54,1430.3,911,1432.35,893.2,1432.35Zm-3-32h0Z" />
        <path class="cls-1" d="M1636.65,662.21c28.28,102.09,68.59,176,100.41,224.64,24.31,37.15,53.08,70.72,110.64,137.86,26.1,30.45,84.77,98.6,161.17,173.73,18.34,18,76.74,74.86,76.74,74.86-6.44,5.54-15.75,13.39-27.21,22.56-34.08,27.27-38.82,31.29-46.19,44.2-3.48,6.1-12.54,35.09,7.81,49.65,48.42,34.65,64.43,30.32,82.53,31.83,29.1,2.42,49.37,0,59.73,0,7.13,0,62.8-.76,96.43-31.27,13.45-12.2,31.53-36.55,28.82-158.61-2.9-130.82-24.72-150.43-15.79-248,5-54.32,15.64-112.07,15.64-112.07,12-65.12,19.89-79.42,20.35-111.47.58-40.78-13.15-65.06-40.23-131.45-64.11-157.2-51.27-145.5-74.26-185.53-37.2-64.8-46.1-52.36-101.33-142.34-28.95-47.15-37-67.72-65.13-94.37-39.6-37.58-81.73-51.92-108-61.13-189.49-66.38-173.53-82.45-274.49-107.22C1517.62,7,1420.2,14.58,1281.05,25.38,1128.37,37.23,979,48.82,810.28,127.87,773,145.35,698.8,190.7,550.48,281.4c-45.59,27.88-97.83,60.36-160.94,110.87-42.5,34-81.21,84.27-104.1,106.59" />
        <path d="M2128.78,1438.62c-8.09,0-17.31-.28-27.56-1.14-2.07-.17-4.22-.26-6.5-.36-17-.7-38.13-1.57-84-34.4-12.86-9.21-19.8-23.87-19.52-41.26.19-12,3.72-23.35,7.14-29.34,9.13-16,16.18-21.63,50.09-48.76q6.72-5.37,13.39-10.91c-18.27-17.79-51.26-49.93-64.15-62.6-78.43-77.13-139.22-148-162.1-174.73-57.93-67.57-87-101.49-111.88-139.52-44.85-68.58-79.32-145.67-102.44-229.12a16,16,0,1,1,30.84-8.54c22.24,80.26,55.34,154.33,98.38,220.15,23.74,36.29,52.37,69.68,109.39,136.2,22.65,26.41,82.79,96.56,160.25,172.74,18.1,17.8,76.1,74.24,76.68,74.8l12.54,12.21-13.27,11.4c-9,7.74-18.32,15.45-27.64,22.91-33.82,27.06-36.59,29.66-42.29,39.64-.06.12-8.45,20.36,3.22,28.7,38.12,27.28,52.65,27.88,66.71,28.46,2.51.11,5.1.21,7.84.44a333.27,333.27,0,0,0,47.39.35c4.22-.22,7.86-.4,11-.41,5.73,0,56.79-.88,85.72-27.12,7.19-6.52,26.29-23.85,23.57-146.41-1.29-58.41-6.36-93.87-10.84-125.16-5.33-37.29-9.93-69.48-4.88-124.63,5-54.42,15.4-111.13,15.84-113.52,4.83-26.19,9-44.11,12.29-58.5,4.86-21.06,7.54-32.66,7.79-50.28.44-30.6-8-50.73-26.46-94.84-3.75-9-8-19.11-12.59-30.35-31.95-78.35-44.9-115-52.64-136.91s-9.82-27.79-20.68-46.7c-17.06-29.72-27.9-42.47-40.45-57.24-14.62-17.21-31.19-36.71-60.64-84.69-7.1-11.56-12.95-21.54-18.12-30.34-16-27.18-24.74-42.16-44.38-60.8-36.45-34.58-75.27-48.17-101-57.16l-1.35-.47c-96.18-33.69-140.39-54.78-172.68-70.18-31.18-14.87-51.78-24.69-100.33-36.6-124.15-30.47-217.24-23.24-358.16-12.3-153.83,11.94-299.13,23.22-465.22,101C780.55,159.46,706.46,204.77,558.85,295c-49.64,30.36-99.16,61.58-159.31,109.73C372.19,426.65,346,456.06,325,479.68c-10.92,12.26-20.34,22.84-28.34,30.64a16,16,0,0,1-22.34-22.91c7.19-7,16.27-17.21,26.78-29,21.85-24.52,49-55,78.49-78.62,61.61-49.32,112.07-81.14,162.6-112,148.64-90.9,223.23-136.51,261.35-154.37,77-36.08,157.26-61.49,245.3-77.69,78.34-14.41,156-20.44,231-26.26,138.83-10.78,239.13-18.57,368.27,13.12,51.74,12.69,74.7,23.64,106.48,38.8,31.62,15.08,74.93,35.74,169.48,68.86l1.34.47c26.55,9.29,71,24.84,112.42,64.15,22.92,21.75,33.67,40.08,50,67.82,5.09,8.67,10.86,18.5,17.79,29.79,28.17,45.88,43.89,64.38,57.76,80.71,13,15.3,25.29,29.76,43.82,62,12.3,21.44,15.24,29.75,23.09,52,7.64,21.63,20.44,57.84,52.1,135.49,4.53,11.1,8.75,21.18,12.47,30.07,19,45.39,29.48,70.39,28.95,107.65-.3,21-3.61,35.35-8.61,57-3.25,14.08-7.3,31.61-12,57.11-.11.57-10.6,57.7-15.44,110.63-4.71,51.41-.56,80.43,4.69,117.18,4.6,32.18,9.82,68.65,11.16,129,1.24,55.93-1.66,96.77-8.85,124.83-6.8,26.54-16.57,38.14-25.22,46-37,33.56-95.75,35.4-107.15,35.42-2.34,0-5.63.17-9.44.37C2146.55,1438.21,2138.47,1438.62,2128.78,1438.62Z" />
        <path class="cls-1" d="M1204.73,1062a792.67,792.67,0,0,0,126.13,26c48.93,6,86.07,5.9,122.39,5.81,40-.1,79.55-.2,131.79-7.41,37.47-5.18,78.12-11,128.16-29.39a503.17,503.17,0,0,0,110.27-56.81" />
        <path d="M1439.83,1109.75c-32.56,0-67.08-.58-110.92-5.94a812.57,812.57,0,0,1-128.67-26.5l9-30.71A780.6,780.6,0,0,0,1332.8,1072c47.94,5.87,84.79,5.77,120.41,5.69,40.36-.1,78.48-.2,129.64-7.26,35.34-4.88,75.39-10.41,124.84-28.56a487.92,487.92,0,0,0,106.76-55l18,26.43A519.84,519.84,0,0,1,1718.71,1072c-52.68,19.33-96.37,25.37-131.48,30.22-53.3,7.36-94.29,7.46-133.93,7.56Z" />
        <path class="cls-1" d="M470.92,878.28c8.11,2.08,29.25,8.72,42.69,28.56,13,19.18,11.51,39.94,10.24,54.83-3.34,39-21.4,43.72-30.53,87.95a178.82,178.82,0,0,0-1.83,63.05c4.55,29.16,15.59,49.54,22.87,62.7,16.39,29.63,34.46,46.75,64.08,74.34,34.77,32.39,52.61,48.64,74.79,51.21,3.37.39,41.46,4.17,67.51-23.31,14.92-15.74,18.65-34.09,19.69-41.13,1.72-11.6.85-24.52-27.54-84.32-24-50.65-31.16-57.71-36.35-62.11-22.78-19.32-50-22.8-64.73-23.44" />
        <path d="M660.84,1317.28a84.23,84.23,0,0,1-9.45-.47c-27.86-3.22-48.93-22.86-83.86-55.39-28.57-26.61-49.21-45.84-67.17-78.3-6.85-12.38-19.6-35.43-24.68-68a195,195,0,0,1,2-68.75c4.8-23.26,11.84-36.65,18.05-48.46s10.73-20.39,12.21-37.62c1.07-12.5,2.53-29.62-7.54-44.49-9.59-14.16-25.07-19.89-33.44-22.05l8-31c12.75,3.28,36.45,12.21,51.95,35.09,16.43,24.26,14.24,49.87,12.93,65.17-2,23.67-9,37-15.76,49.79-5.74,10.9-11.15,21.19-15,40a162.55,162.55,0,0,0-1.69,57.36c4.21,27,14.76,46,21.06,57.42,14.84,26.81,30.26,41.76,61,70.38,33.5,31.2,49,45.08,65.73,47,1.34.16,33.22,3.57,54.06-18.42,11-11.61,14.42-25.32,15.47-32.45.95-6.44,2.26-15.25-26.16-75.13-23.37-49.23-29.59-54.51-32.25-56.76-17.74-15-39.74-19-55.07-19.66l1.38-32c29.15,1.26,54.88,10.67,74.39,27.22,7.73,6.56,16.12,16.16,40.45,67.45,30.33,63.88,31.14,78.51,28.92,93.52-1.61,10.87-6.85,31.8-23.9,49.79C708.51,1313.77,676.72,1317.28,660.84,1317.28Z" />
        <path class="cls-1" d="M727,1188.65c29.87,3.78,54.52-.18,71-15,14.28-12.82,31.65-10.1,49.41-35,20.68-28.94,13.9-40.84,30.05-66.37,7.67-12.12,14.56-28.45,17-50.55" />
        <path d="M746.82,1206a175.39,175.39,0,0,1-21.83-1.44l4-31.75c26.78,3.38,46.4-.32,58.3-11,7.33-6.57,15-10,21.73-13,9.44-4.2,16.9-7.53,25.35-19.35,9.65-13.5,12.19-22.15,15.13-32.17,2.74-9.32,5.84-19.89,14.42-33.46,7.86-12.42,12.78-27.15,14.62-43.75l31.8,3.52c-2.37,21.48-8.89,40.77-19.37,57.34-6.19,9.78-8.31,17-10.77,25.36-3.28,11.19-7,23.86-19.79,41.77-13.52,18.9-27.3,25-38.37,30-5.47,2.44-9.8,4.37-13.37,7.57C793.57,1199.15,772.82,1206,746.82,1206Z" />
        <circle cx="261.52" cy="736.44" r="27.15" />
        <circle cx="156.82" cy="674.92" r="27.15" />
        <path d="M53.18,862.05c-17.19,4.62.1,42.15,12.49,44.23,13.39,2.25,40.8-31.82,26.68-40.34C80.07,858.54,66.77,858.41,53.18,862.05Z" />
    </g>
</svg>