<svg version="1.1" 
    xmlns="http://www.w3.org/2000/svg" 
    xmlns:xlink="http://www.w3.org/1999/xlink" preserveAspectRatio="xMidYMid meet" viewBox="0 0 640 640" role="img">
    <defs>
        <path d="M406.62 121.96L409.04 122.02L411.45 122.1L413.86 122.21L416.28 122.35L418.7 122.51L421.12 122.7L423.55 122.92L425.99 123.17L428.44 123.45L430.9 123.76L433.38 124.1L435.87 124.47L438.39 124.88L440.92 125.33L443.47 125.81L446.04 126.33L448.64 126.88L451.26 127.48L453.92 128.11L454.97 128.37L456 128.63L456.99 128.89L457.96 129.15L458.91 129.4L459.83 129.66L460.73 129.91L461.6 130.16L462.45 130.42L463.28 130.67L464.09 130.92L464.88 131.17L465.65 131.42L466.41 131.68L467.15 131.93L467.88 132.18L468.59 132.43L469.28 132.69L469.97 132.94L470.64 133.2L471.31 133.46L471.96 133.72L472.61 133.98L473.24 134.24L473.88 134.5L474.5 134.77L475.12 135.04L475.74 135.31L476.36 135.58L476.97 135.86L477.59 136.14L478.2 136.42L478.82 136.7L479.43 136.99L480.06 137.28L480.68 137.58L481.31 137.88L481.95 138.18L482.59 138.49L483.24 138.8L483.9 139.11L484.58 139.43L485.26 139.76L485.96 140.09L486.68 140.43L487.42 140.78L488.17 141.13L488.94 141.49L489.74 141.86L490.55 142.23L491.39 142.61L492.24 143L493.13 143.4L494.04 143.8L494.97 144.22L495.94 144.64L496.93 145.07L497.95 145.51L499 145.96L500.08 146.42L501.2 146.88L502.35 147.36L503.53 147.85L504.75 148.34L506 148.85L507.3 149.36L508.63 149.89L510 150.43L511.41 150.98L512.87 151.54L514.36 152.11L515.9 152.69L517.49 153.28L519.12 153.88L520.8 154.5L522.52 155.13L524.3 155.77L526.12 156.42L527.99 157.09L529.92 157.76L530.29 157.89L530.85 158.09L531.42 158.29L532.02 158.5L532.63 158.72L533.25 158.94L533.89 159.18L534.55 159.42L535.22 159.67L535.91 159.94L536.61 160.21L537.32 160.49L538.05 160.79L538.78 161.1L539.53 161.42L540.29 161.75L541.06 162.1L541.84 162.46L542.63 162.83L543.43 163.22L544.24 163.63L545.05 164.05L545.87 164.48L546.7 164.93L547.53 165.4L548.37 165.89L549.22 166.39L550.06 166.91L550.92 167.45L551.77 168.01L552.63 168.59L553.49 169.19L554.35 169.81L555.22 170.45L556.08 171.11L556.95 171.8L557.81 172.5L558.67 173.23L559.54 173.98L560.4 174.76L561.25 175.56L561.72 176.01L562.18 176.45L562.62 176.89L563.05 177.33L563.47 177.77L563.88 178.2L564.29 178.64L564.68 179.07L565.06 179.5L565.44 179.93L565.8 180.36L566.16 180.79L566.51 181.22L566.86 181.66L567.2 182.09L567.53 182.52L567.86 182.96L568.18 183.4L568.5 183.84L568.82 184.28L569.13 184.73L569.44 185.18L569.75 185.63L570.05 186.09L570.35 186.55L570.66 187.02L570.96 187.49L571.26 187.97L571.56 188.45L571.86 188.94L572.17 189.44L572.47 189.94L572.78 190.45L573.09 190.96L573.4 191.49L573.72 192.02L574.04 192.56L574.36 193.11L574.69 193.67L575.02 194.24L575.13 194.42L575.24 194.6L575.34 194.78L575.45 194.97L575.56 195.15L575.67 195.34L575.78 195.52L575.89 195.71L576 195.9L576.11 196.09L576.23 196.28L576.34 196.48L576.45 196.67L576.57 196.87L576.69 197.06L576.8 197.26L576.92 197.46L577.04 197.66L577.16 197.87L577.28 198.07L577.41 198.28L577.53 198.48L577.65 198.69L577.78 198.9L577.9 199.11L578.03 199.32L578.16 199.54L578.29 199.75L578.42 199.97L578.55 200.19L578.68 200.41L578.82 200.63L578.95 200.85L579.09 201.07L579.22 201.3L579.36 201.52L579.5 201.75L579.64 201.98L579.78 202.21L579.92 202.44L580.5 203.38L581.06 204.28L581.61 205.16L582.15 206.02L582.68 206.84L583.19 207.64L583.7 208.42L584.19 209.18L584.67 209.91L585.14 210.62L585.61 211.3L586.06 211.97L586.5 212.61L586.93 213.24L587.36 213.84L587.77 214.43L588.18 215L588.58 215.55L588.97 216.09L589.35 216.61L589.73 217.12L590.1 217.61L590.46 218.08L590.82 218.54L591.16 218.99L591.51 219.43L591.85 219.86L592.18 220.28L592.5 220.68L592.83 221.08L593.14 221.47L593.45 221.85L593.76 222.22L594.07 222.59L594.37 222.94L594.67 223.3L594.96 223.65L595.25 223.99L595.54 224.33L595.83 224.67L596.1 224.99L596.37 225.3L596.63 225.62L596.9 225.94L597.17 226.25L597.44 226.57L597.7 226.89L597.97 227.21L598.24 227.54L598.51 227.87L598.78 228.2L599.05 228.54L599.33 228.88L599.6 229.23L599.88 229.59L600.16 229.95L600.44 230.31L600.72 230.69L601.01 231.07L601.29 231.46L601.59 231.86L601.88 232.27L602.18 232.69L602.48 233.12L602.78 233.55L603.09 234L603.4 234.47L603.72 234.94L604.04 235.43L604.36 235.93L604.69 236.44L605.03 236.97L605.37 237.51L605.71 238.07L606.06 238.64L606.42 239.23L606.78 239.83L607.15 240.45L607.52 241.09L607.9 241.75L608.15 242.18L608.39 242.61L608.62 243.02L608.84 243.42L609.06 243.81L609.26 244.19L609.46 244.56L609.65 244.92L609.84 245.27L610.02 245.62L610.19 245.95L610.36 246.29L610.52 246.62L610.68 246.94L610.83 247.26L610.98 247.58L611.12 247.89L611.27 248.2L611.4 248.51L611.54 248.83L611.67 249.14L611.8 249.45L611.93 249.77L612.06 250.08L612.19 250.4L612.32 250.73L612.45 251.06L612.57 251.39L612.7 251.73L612.83 252.08L612.96 252.43L613.09 252.79L613.23 253.17L613.36 253.55L613.5 253.94L613.65 254.34L613.79 254.75L613.94 255.18L614.1 255.62L614.26 256.07L614.42 256.52L614.59 256.99L614.76 257.48L614.94 257.99L615.12 258.51L615.32 259.05L615.52 259.61L615.72 260.19L615.94 260.79L616.16 261.41L616.4 262.05L616.64 262.72L616.89 263.4L617.15 264.12L617.43 264.86L617.71 265.62L618 266.41L618.31 267.23L618.62 268.07L618.95 268.94L619.29 269.84L619.65 270.77L620.02 271.74L620.4 272.73L620.79 273.75L621.2 274.81L621.62 275.9L622.06 277.02L622.52 278.18L622.98 279.37L623.47 280.6L623.97 281.87L624.49 283.17L625.02 284.51L625.57 285.89L626.14 287.31L626.73 288.76L627.34 290.26L627.96 291.8L628.61 293.39L628.7 293.62L628.8 293.84L628.89 294.07L628.98 294.3L629.07 294.52L629.16 294.74L629.26 294.97L629.35 295.19L629.44 295.41L629.53 295.63L629.62 295.84L629.71 296.06L629.8 296.28L629.89 296.49L629.97 296.7L630.06 296.92L630.15 297.13L630.24 297.34L630.32 297.55L630.41 297.76L630.5 297.96L630.58 298.17L630.67 298.37L630.75 298.58L630.84 298.78L630.92 298.98L631 299.18L631.09 299.38L631.17 299.57L631.25 299.77L631.33 299.97L631.41 300.16L631.49 300.35L631.57 300.54L631.65 300.73L631.73 300.92L631.81 301.11L631.89 301.3L632.04 301.67L632.43 302.6L632.81 303.5L633.18 304.39L633.54 305.26L633.89 306.11L634.24 306.95L634.57 307.76L634.9 308.57L635.21 309.36L635.52 310.13L635.81 310.89L636.1 311.65L636.38 312.39L636.65 313.12L636.9 313.84L637.15 314.55L637.39 315.25L637.62 315.95L637.84 316.64L638.05 317.33L638.25 318.02L638.43 318.69L638.61 319.37L638.78 320.05L638.94 320.72L639.08 321.4L639.22 322.07L639.35 322.75L639.46 323.43L639.57 324.11L639.66 324.8L639.75 325.49L639.82 326.19L639.88 326.9L639.93 327.61L639.97 328.33L640 329.06L640.02 329.8L640.02 330.55L640.02 331.32L640.01 331.75L640 332.17L639.98 332.59L639.97 333L639.95 333.41L639.92 333.81L639.9 334.21L639.87 334.6L639.84 334.99L639.8 335.37L639.77 335.75L639.73 336.13L639.69 336.51L639.64 336.88L639.59 337.25L639.54 337.62L639.49 337.99L639.43 338.36L639.38 338.73L639.32 339.1L639.25 339.47L639.19 339.84L639.12 340.21L639.05 340.58L638.98 340.95L638.9 341.33L638.83 341.71L638.75 342.09L638.67 342.47L638.59 342.86L638.5 343.25L638.41 343.65L638.32 344.05L638.23 344.46L638.14 344.87L638.04 345.28L637.95 345.71L637.85 346.14L637.75 346.57L637.65 347.02L637.58 347.31L637.51 347.6L637.44 347.9L637.37 348.21L637.3 348.52L637.23 348.83L637.16 349.15L637.08 349.47L637.01 349.79L636.93 350.12L636.86 350.46L636.78 350.8L636.7 351.14L636.63 351.49L636.55 351.84L636.47 352.2L636.39 352.57L636.31 352.94L636.22 353.32L636.14 353.7L636.06 354.09L635.98 354.48L635.89 354.88L635.8 355.29L635.72 355.7L635.63 356.12L635.54 356.55L635.46 356.98L635.37 357.42L635.28 357.87L635.19 358.32L635.1 358.78L635 359.25L634.91 359.73L634.82 360.21L634.72 360.7L634.63 361.2L634.53 361.71L634.44 362.22L634.34 362.74L634.33 362.79L634.31 362.88L634.29 363.04L634.25 363.24L634.2 363.5L634.15 363.81L634.09 364.17L634.01 364.57L633.94 365.03L633.85 365.52L633.76 366.06L633.66 366.64L633.56 367.26L633.45 367.92L633.33 368.61L633.21 369.34L633.09 370.1L632.96 370.9L632.84 371.72L632.7 372.57L632.57 373.45L632.43 374.36L632.29 375.29L632.15 376.24L632.01 377.21L631.87 378.2L631.73 379.21L631.59 380.23L631.45 381.27L631.31 382.33L631.17 383.39L631.04 384.46L630.91 385.54L630.78 386.63L630.65 387.73L630.53 388.82L630.41 389.92L630.3 391.02L630.19 392.12L630.09 393.21L629.99 394.26L629.91 395.29L629.84 396.3L629.77 397.29L629.71 398.25L629.66 399.2L629.62 400.13L629.59 401.04L629.56 401.93L629.54 402.81L629.53 403.67L629.52 404.52L629.52 405.35L629.53 406.17L629.55 406.98L629.57 407.78L629.59 408.56L629.62 409.34L629.66 410.11L629.7 410.86L629.75 411.62L629.81 412.36L629.86 413.1L629.93 413.83L629.99 414.56L630.06 415.29L630.14 416.01L630.22 416.73L630.3 417.45L630.39 418.17L630.47 418.88L630.57 419.6L630.66 420.32L630.76 421.05L630.86 421.78L630.96 422.51L631.06 423.24L631.17 423.98L631.27 424.73L631.38 425.49L631.47 426.15L631.57 426.83L631.67 427.5L631.76 428.19L631.86 428.88L631.96 429.57L632.05 430.28L632.15 430.99L632.25 431.71L632.34 432.44L632.44 433.18L632.53 433.93L632.63 434.69L632.72 435.46L632.81 436.24L632.9 437.04L632.99 437.84L633.08 438.66L633.17 439.5L633.25 440.34L633.34 441.2L633.42 442.08L633.5 442.97L633.58 443.88L633.65 444.81L633.73 445.75L633.8 446.71L633.87 447.69L633.93 448.68L634 449.7L634.06 450.73L634.11 451.79L634.17 452.87L634.22 453.96L634.27 455.08L634.31 456.22L634.35 457.39L634.39 458.57L634.42 459.78L634.45 461.02L634.48 462.16L634.5 463.3L634.51 464.41L634.52 465.51L634.53 466.6L634.53 467.67L634.53 468.72L634.52 469.77L634.51 470.79L634.49 471.8L634.48 472.79L634.45 473.77L634.42 474.74L634.39 475.69L634.35 476.63L634.31 477.55L634.27 478.45L634.22 479.34L634.16 480.22L634.11 481.08L634.04 481.93L633.97 482.77L633.9 483.59L633.83 484.39L633.75 485.18L633.66 485.96L633.57 486.72L633.48 487.47L633.38 488.21L633.28 488.93L633.17 489.64L633.06 490.33L632.95 491.01L632.83 491.68L632.7 492.33L632.57 492.97L632.44 493.6L632.3 494.21L632.16 494.81L632.02 495.4L631.87 495.94L631.73 496.46L631.58 496.97L631.43 497.47L631.28 497.95L631.12 498.42L630.96 498.87L630.8 499.31L630.64 499.74L630.48 500.16L630.31 500.56L630.14 500.95L629.97 501.33L629.8 501.69L629.62 502.05L629.45 502.39L629.27 502.72L629.09 503.05L628.91 503.36L628.73 503.66L628.55 503.95L628.37 504.24L628.19 504.51L628 504.78L627.82 505.03L627.64 505.28L627.45 505.52L627.27 505.76L627.08 505.98L626.9 506.2L626.71 506.41L626.53 506.62L626.34 506.82L626.16 507.01L625.98 507.2L625.79 507.38L625.61 507.56L625.43 507.73L625.25 507.9L625.07 508.07L624.29 508.74L623.5 509.39L622.68 510L621.85 510.58L621 511.14L620.14 511.66L619.27 512.16L618.39 512.63L617.5 513.07L616.6 513.49L615.7 513.88L614.79 514.25L613.89 514.59L612.98 514.91L612.08 515.21L611.18 515.49L610.29 515.75L609.41 515.99L608.53 516.21L607.67 516.41L606.82 516.59L605.99 516.76L605.17 516.91L604.37 517.05L603.59 517.17L602.83 517.28L602.1 517.37L601.39 517.46L600.71 517.53L600.06 517.59L599.44 517.65L598.86 517.69L598.3 517.73L597.79 517.76L597.31 517.78L596.87 517.8L596.48 517.81L596.13 517.82L595.82 517.82L595.56 517.82L595.51 517.82L595.46 517.82L595.41 517.82L595.36 517.82L595.31 517.82L595.25 517.82L595.2 517.83L595.14 517.83L595.09 517.83L595.03 517.83L594.97 517.83L594.91 517.83L594.85 517.83L594.79 517.84L594.73 517.84L594.67 517.84L594.6 517.84L594.54 517.85L594.48 517.85L594.41 517.85L594.34 517.85L594.28 517.86L594.21 517.86L594.14 517.86L594.07 517.87L594 517.87L593.93 517.87L593.86 517.88L593.79 517.88L593.72 517.88L593.64 517.89L593.57 517.89L593.5 517.89L593.42 517.9L593.35 517.9L593.27 517.91L593.19 517.91L593.12 517.91L592.96 517.92L592.83 517.93L592.69 517.93L592.55 517.94L592.42 517.95L592.28 517.95L592.13 517.96L591.99 517.96L591.85 517.97L591.7 517.98L591.55 517.98L591.4 517.99L591.25 518L591.09 518L590.94 518.01L590.78 518.01L590.62 518.02L590.46 518.03L590.3 518.03L590.14 518.04L589.97 518.04L589.8 518.05L589.63 518.06L589.46 518.06L589.29 518.07L589.12 518.07L588.94 518.08L588.76 518.08L588.58 518.08L588.4 518.09L588.22 518.09L588.04 518.09L587.85 518.1L587.66 518.1L587.47 518.1L587.28 518.11L587.09 518.11L586.89 518.11L586.7 518.11L586.5 518.11L586.3 518.11L586.13 518.11L585.97 518.11L585.8 518.11L585.62 518.11L585.45 518.11L585.28 518.1L585.1 518.1L584.93 518.1L584.75 518.1L584.57 518.09L584.39 518.09L584.21 518.09L584.03 518.08L583.85 518.08L583.67 518.07L583.48 518.07L583.29 518.06L583.11 518.06L582.92 518.05L582.73 518.04L582.54 518.03L582.35 518.03L582.16 518.02L581.96 518.01L581.77 518L581.57 517.99L581.37 517.98L581.17 517.97L580.98 517.96L580.78 517.95L580.57 517.93L580.37 517.92L580.17 517.91L579.96 517.89L579.76 517.88L579.55 517.86L579.34 517.85L579.13 517.83L578.92 517.81L578.71 517.8L578.67 517.79L578.63 517.79L578.58 517.79L578.54 517.78L578.5 517.78L578.45 517.78L578.41 517.77L578.37 517.77L578.32 517.77L578.28 517.76L578.24 517.76L578.19 517.76L578.15 517.76L578.1 517.75L578.06 517.75L578.02 517.75L577.97 517.75L577.93 517.74L577.88 517.74L577.84 517.74L577.79 517.74L577.75 517.73L577.7 517.73L577.66 517.73L577.61 517.73L577.57 517.73L577.52 517.72L577.48 517.72L577.43 517.72L577.39 517.72L577.34 517.72L577.29 517.71L577.2 517.71L577.16 517.71L577.06 517.7L576.97 517.7L576.92 517.7L576.57 517.68L576.21 517.67L575.85 517.65L575.48 517.63L575.1 517.61L574.72 517.58L574.33 517.54L573.93 517.51L573.52 517.46L573.11 517.41L572.68 517.35L572.25 517.27L571.8 517.19L571.34 517.1L570.87 517L570.39 516.88L569.9 516.75L569.39 516.61L568.87 516.45L568.34 516.28L567.79 516.09L567.22 515.88L566.64 515.65L566.04 515.41L565.42 515.14L564.79 514.86L564.14 514.55L563.47 514.22L562.78 513.87L562.07 513.49L561.34 513.09L560.59 512.66L559.82 512.21L559.03 511.73L558.22 511.22L557.38 510.68L556.52 510.11L555.63 509.51L554.72 508.88L553.79 508.22L553.52 508.03L553.27 507.83L553.02 507.63L552.77 507.42L552.54 507.2L552.3 506.98L552.08 506.76L551.86 506.53L551.65 506.29L551.44 506.05L551.24 505.81L551.05 505.55L550.86 505.3L550.68 505.04L550.51 504.78L550.34 504.51L550.18 504.23L550.03 503.95L549.88 503.67L549.74 503.39L549.61 503.09L549.48 502.8L549.36 502.5L549.25 502.2L549.14 501.89L549.04 501.58L548.95 501.26L548.87 500.95L548.79 500.62L548.72 500.3L548.66 499.97L548.6 499.64L548.55 499.3L548.51 498.96L548.47 498.62L548.45 498.27L548.43 497.92L548.41 497.57L548.41 497.22L548.41 496.86L548.42 496.61L548.42 496.36L548.44 496.12L548.45 495.87L548.47 495.63L548.49 495.39L548.52 495.15L548.54 494.91L548.57 494.67L548.61 494.43L548.64 494.2L548.68 493.97L548.72 493.74L548.76 493.51L548.81 493.28L548.85 493.06L548.9 492.84L548.95 492.62L549.01 492.41L549.06 492.2L549.12 491.99L549.17 491.78L549.23 491.58L549.29 491.38L549.35 491.19L549.42 491L549.48 490.81L549.55 490.63L549.61 490.45L549.68 490.27L549.75 490.1L549.82 489.93L549.88 489.77L549.95 489.62L550.02 489.46L550.09 489.32L550.16 489.17L550.24 489.04L550.31 488.9L550.38 488.78L550.56 488.45L550.75 488.14L550.94 487.83L551.12 487.53L551.31 487.24L551.5 486.96L551.69 486.68L551.88 486.41L552.08 486.14L552.28 485.87L552.49 485.61L552.7 485.35L552.92 485.09L553.15 484.82L553.38 484.56L553.63 484.3L553.88 484.03L554.15 483.76L554.43 483.49L554.72 483.21L555.02 482.93L555.33 482.64L555.66 482.34L556.01 482.03L556.37 481.72L556.74 481.39L557.14 481.06L557.55 480.71L557.98 480.35L558.43 479.98L558.9 479.59L559.39 479.19L559.91 478.77L560.44 478.34L561 477.89L561.58 477.42L562.19 476.93L562.83 476.43L563.49 475.9L564.17 475.35L564.31 475.24L564.45 475.13L564.58 475.02L564.72 474.91L564.85 474.81L564.98 474.7L565.1 474.6L565.23 474.5L565.36 474.4L565.48 474.3L565.6 474.2L565.72 474.1L565.83 474.01L565.94 473.92L566.06 473.83L566.16 473.74L566.27 473.65L566.37 473.57L566.47 473.48L566.57 473.4L566.67 473.33L566.76 473.25L566.85 473.18L566.94 473.11L567.02 473.04L567.1 472.97L567.18 472.91L567.25 472.85L567.32 472.79L567.57 472.58L567.62 472.54L567.67 472.5L567.72 472.46L567.76 472.43L567.8 472.4L567.83 472.37L567.86 472.34L567.48 471.97L567.08 471.58L566.66 471.18L566.24 470.76L565.8 470.34L565.35 469.9L564.9 469.46L564.43 469L563.96 468.54L563.48 468.07L562.99 467.6L562.5 467.12L562 466.63L561.5 466.15L560.99 465.66L560.49 465.16L559.98 464.67L559.48 464.18L558.97 463.69L558.47 463.19L557.97 462.71L557.47 462.22L556.98 461.74L556.5 461.27L556.02 460.8L555.54 460.34L555.08 459.88L554.62 459.44L554.18 459L553.74 458.58L553.32 458.17L552.91 457.77L552.51 457.38L552.13 457L551.76 456.64L551.41 456.3L551.08 455.97L550.76 455.67L550.47 455.37L550.19 455.1L548.58 453.51L546.99 451.93L545.42 450.36L543.86 448.79L542.33 447.24L540.82 445.7L539.33 444.16L537.86 442.65L536.41 441.14L534.99 439.66L533.59 438.19L532.21 436.73L530.86 435.3L529.54 433.88L528.24 432.48L526.96 431.11L525.71 429.75L524.49 428.42L523.3 427.12L522.13 425.84L521 424.58L519.89 423.35L518.81 422.15L517.76 420.98L516.75 419.84L515.76 418.73L514.81 417.65L513.89 416.61L513 415.59L512.14 414.62L511.32 413.68L510.54 412.77L509.78 411.91L509.07 411.08L508.39 410.29L507.75 409.54L507.14 408.84L506.57 408.17L506.04 407.55L505.55 406.98L504.37 405.6L503.21 404.26L502.09 402.94L501.96 402.79L501.74 402.93L501 403.41L500.25 403.88L499.51 404.35L498.75 404.82L498 405.28L497.24 405.73L496.48 406.18L495.72 406.63L494.95 407.07L494.19 407.5L493.42 407.94L492.64 408.36L492.49 408.44L492.61 408.8L492.81 409.43L493.01 410.07L493.2 410.71L493.39 411.34L493.57 411.98L493.74 412.63L493.91 413.27L494.08 413.91L494.24 414.56L494.39 415.2L494.54 415.85L494.69 416.5L494.83 417.15L494.96 417.8L495.09 418.45L495.21 419.11L495.33 419.76L495.44 420.42L495.55 421.07L495.65 421.73L495.74 422.39L495.83 423.05L495.92 423.71L496 424.37L496.07 425.03L496.14 425.69L496.21 426.35L496.26 427.02L496.32 427.68L496.36 428.35L496.39 428.74L496.41 429.13L496.44 429.53L496.46 429.92L496.48 430.31L496.49 430.71L496.51 431.1L496.52 431.49L496.53 431.89L496.54 432.28L496.54 432.68L496.55 433.07L496.55 433.46L496.55 433.86L496.55 434.25L496.54 434.64L496.54 435.04L496.53 435.43L496.52 435.82L496.51 436.22L496.5 436.61L496.48 437L496.47 437.4L496.45 437.79L496.42 438.18L496.4 438.58L496.38 438.97L496.35 439.36L496.32 439.76L496.29 440.15L496.26 440.54L496.22 440.93L496.18 441.32L496.15 441.72L496.11 442.11L496.06 442.5L496.02 442.89L495.97 443.28L495.92 443.67L495.87 444.06L495.73 445.03L495.59 445.97L495.43 446.91L495.26 447.83L495.08 448.74L494.9 449.64L494.71 450.52L494.51 451.39L494.3 452.24L494.08 453.08L493.86 453.91L493.63 454.72L493.4 455.51L493.16 456.3L492.92 457.07L492.68 457.82L492.43 458.56L492.17 459.28L491.92 459.99L491.66 460.68L491.4 461.35L491.14 462.01L490.88 462.66L490.62 463.29L490.36 463.9L490.1 464.49L489.85 465.07L489.59 465.63L489.33 466.18L489.08 466.71L488.83 467.22L488.59 467.71L488.34 468.19L488.11 468.64L487.87 469.08L487.65 469.51L487.43 469.91L487.21 470.3L487 470.66L486.8 471.01L486.5 471.53L486.2 472.05L485.89 472.57L485.58 473.11L485.25 473.65L484.92 474.2L484.58 474.76L484.24 475.32L483.88 475.89L483.52 476.46L483.15 477.03L482.77 477.61L482.38 478.19L481.97 478.77L481.56 479.36L481.14 479.94L480.7 480.52L480.26 481.11L479.8 481.69L479.33 482.28L478.84 482.86L478.35 483.44L477.84 484.01L477.31 484.58L476.77 485.15L476.22 485.71L475.65 486.27L475.07 486.82L474.47 487.37L473.85 487.91L473.22 488.44L472.57 488.96L471.9 489.48L471.22 489.98L470.52 490.48L469.8 490.96L469.06 491.44L468.3 491.9L467.52 492.35L466.72 492.79L466.46 492.93L466.21 493.06L465.95 493.19L465.7 493.31L465.44 493.43L465.18 493.54L464.91 493.66L464.63 493.76L464.34 493.87L464.04 493.97L463.73 494.07L463.4 494.17L463.04 494.27L462.67 494.37L462.27 494.46L461.85 494.56L461.4 494.66L460.92 494.75L460.41 494.85L459.86 494.95L459.28 495.05L458.66 495.16L458 495.27L457.29 495.37L456.54 495.49L455.75 495.6L454.9 495.73L454.01 495.85L453.06 495.98L452.05 496.12L450.99 496.26L449.87 496.4L448.68 496.56L447.44 496.72L446.12 496.89L444.74 497.06L443.29 497.24L441.76 497.44L440.16 497.64L438.49 497.84L437.78 497.93L437.08 498.02L436.39 498.1L435.72 498.19L435.06 498.27L434.41 498.35L433.77 498.43L433.15 498.5L432.53 498.58L431.93 498.65L431.34 498.72L430.76 498.79L430.19 498.85L429.63 498.92L429.08 498.98L428.54 499.04L428.01 499.1L427.49 499.15L426.98 499.21L426.49 499.26L425.99 499.31L425.51 499.36L425.04 499.4L424.58 499.44L424.12 499.48L423.68 499.52L423.24 499.56L422.81 499.59L422.38 499.62L421.97 499.65L421.56 499.68L421.16 499.7L420.76 499.72L420.38 499.74L420 499.75L419.62 499.76L419.26 499.77L418.89 499.78L418.54 499.79L418.19 499.79L417.87 499.79L417.56 499.78L417.25 499.78L416.95 499.77L416.65 499.76L416.35 499.74L416.06 499.73L415.77 499.71L415.48 499.69L415.2 499.66L414.92 499.64L414.65 499.61L414.38 499.58L414.11 499.54L413.84 499.5L413.57 499.46L413.31 499.42L413.05 499.38L412.79 499.33L412.53 499.28L412.28 499.22L412.02 499.17L411.77 499.11L411.52 499.04L411.27 498.98L411.02 498.91L410.77 498.84L410.53 498.76L410.28 498.68L410.03 498.6L409.79 498.52L409.54 498.43L409.29 498.34L409.05 498.25L408.8 498.15L408.55 498.05L408.3 497.95L408.05 497.84L407.8 497.73L407.55 497.62L406.79 497.26L406.05 496.9L405.34 496.53L404.66 496.16L404 495.79L403.37 495.41L402.77 495.02L402.19 494.64L401.63 494.25L401.1 493.86L400.59 493.46L400.1 493.07L399.64 492.67L399.2 492.27L398.78 491.87L398.38 491.47L398 491.07L397.64 490.66L397.3 490.26L396.98 489.86L396.67 489.46L396.39 489.06L396.12 488.66L395.87 488.26L395.64 487.87L395.42 487.48L395.22 487.09L395.03 486.7L394.85 486.32L394.69 485.94L394.55 485.56L394.41 485.19L394.29 484.82L394.18 484.45L394.09 484.1L394 483.74L393.93 483.39L393.86 483.05L393.8 482.72L393.76 482.39L393.72 482.07L393.69 481.75L393.66 481.43L393.65 481.12L393.64 480.8L393.63 480.48L393.64 480.16L393.65 479.84L393.67 479.52L393.69 479.2L393.73 478.87L393.77 478.55L393.81 478.23L393.87 477.91L393.93 477.58L393.99 477.26L394.07 476.94L394.15 476.61L394.24 476.29L394.34 475.97L394.44 475.64L394.55 475.32L394.66 474.99L394.79 474.67L394.92 474.34L395.06 474.02L395.2 473.69L395.35 473.37L395.51 473.04L395.68 472.71L395.85 472.39L396.03 472.06L396.21 471.73L396.41 471.41L396.61 471.08L396.81 470.75L397.03 470.43L397.25 470.1L397.48 469.77L397.71 469.44L397.88 469.22L398.05 468.99L398.22 468.77L398.4 468.55L398.58 468.32L398.77 468.1L398.96 467.88L399.15 467.67L399.35 467.45L399.55 467.23L399.75 467.02L399.96 466.81L400.17 466.6L400.39 466.39L400.61 466.18L400.83 465.97L401.06 465.77L401.29 465.56L401.52 465.36L401.76 465.16L402 464.96L402.24 464.76L402.49 464.56L402.74 464.36L403 464.17L403.26 463.98L403.52 463.78L403.78 463.59L404.05 463.41L404.33 463.22L404.6 463.03L404.88 462.85L405.16 462.66L405.45 462.48L405.74 462.3L406.03 462.12L406.33 461.95L406.63 461.77L406.94 461.6L407.24 461.42L407.34 461.37L407.43 461.32L407.52 461.27L407.62 461.22L407.71 461.17L407.8 461.12L407.9 461.07L407.99 461.02L408.09 460.97L408.18 460.92L408.27 460.87L408.37 460.82L408.46 460.77L408.56 460.72L408.65 460.67L408.75 460.63L408.84 460.58L408.94 460.53L409.03 460.48L409.13 460.44L409.22 460.39L409.32 460.34L409.42 460.3L409.51 460.25L409.61 460.2L409.7 460.16L409.8 460.11L409.9 460.07L409.99 460.02L410.09 459.98L410.19 459.94L410.29 459.89L410.38 459.85L410.48 459.8L410.58 459.76L410.67 459.72L410.77 459.67L410.87 459.63L410.97 459.59L411.07 459.55L411.21 459.49L411.3 459.45L411.35 459.43L411.4 459.41L411.44 459.39L411.48 459.37L411.53 459.36L411.57 459.34L411.61 459.32L411.65 459.3L411.7 459.29L411.74 459.27L411.78 459.25L411.82 459.24L411.86 459.22L411.89 459.2L411.93 459.19L411.97 459.17L412.01 459.16L412.04 459.14L412.08 459.13L412.12 459.11L412.15 459.1L412.19 459.09L412.22 459.07L412.26 459.06L412.29 459.05L412.32 459.03L412.36 459.02L412.39 459.01L412.42 459L412.45 458.99L412.48 458.97L412.51 458.96L412.54 458.95L412.57 458.94L412.6 458.93L412.75 458.87L412.9 458.8L413.05 458.73L413.19 458.65L413.34 458.58L413.49 458.5L413.65 458.43L413.8 458.34L413.95 458.26L414.1 458.18L414.25 458.09L414.4 458L414.55 457.91L414.7 457.82L414.85 457.72L414.99 457.62L415.14 457.52L415.28 457.42L415.42 457.32L415.56 457.21L415.7 457.1L415.83 456.99L415.96 456.88L416.09 456.77L416.22 456.65L416.34 456.53L416.46 456.41L416.57 456.29L416.68 456.16L416.79 456.03L416.89 455.9L416.99 455.77L417.08 455.64L417.17 455.5L417.26 455.37L417.33 455.22L417.41 455.08L417.47 454.94L417.53 454.79L417.59 454.64L417.63 454.52L417.67 454.39L417.7 454.25L417.73 454.12L417.75 453.99L417.76 453.85L417.78 453.71L417.78 453.57L417.79 453.43L417.78 453.28L417.78 453.14L417.77 452.99L417.75 452.83L417.73 452.67L417.7 452.51L417.67 452.35L417.64 452.18L417.6 452.01L417.56 451.83L417.51 451.65L417.46 451.47L417.41 451.28L417.35 451.09L417.28 450.89L417.22 450.68L417.14 450.48L417.07 450.26L416.99 450.04L416.91 449.82L416.82 449.59L416.73 449.35L416.63 449.11L416.53 448.86L416.43 448.61L416.33 448.34L416.22 448.08L416.11 447.8L415.99 447.52L415.87 447.23L415.75 446.93L415.67 446.74L415.63 446.64L415.58 446.54L415.54 446.44L415.5 446.34L415.46 446.24L415.42 446.14L415.38 446.03L415.33 445.93L415.29 445.83L415.25 445.72L415.21 445.62L415.16 445.51L415.12 445.41L415.08 445.3L415.03 445.19L414.99 445.08L414.95 444.98L414.9 444.87L414.86 444.76L414.81 444.65L414.77 444.54L414.72 444.42L414.68 444.31L414.64 444.2L414.59 444.09L414.55 443.97L414.5 443.86L414.46 443.74L414.41 443.63L414.37 443.51L414.32 443.39L414.28 443.27L414.23 443.16L414.19 443.04L414.14 442.92L414.1 442.8L414.05 442.68L414.01 442.56L413.84 442.09L413.67 441.63L413.51 441.17L413.35 440.7L413.19 440.23L413.04 439.77L412.89 439.3L412.74 438.83L412.59 438.36L412.45 437.89L412.31 437.42L412.17 436.95L412.04 436.48L411.9 436L411.78 435.53L411.65 435.05L411.53 434.58L411.41 434.1L411.29 433.62L411.17 433.15L411.06 432.67L410.95 432.19L410.85 431.71L410.74 431.23L410.64 430.75L410.54 430.27L410.45 429.79L410.36 429.3L410.27 428.82L410.18 428.34L410.1 427.85L410.04 427.47L409.42 427.48L408.57 427.49L407.72 427.5L406.88 427.51L406.05 427.52L405.21 427.52L404.38 427.53L403.55 427.53L402.73 427.53L401.9 427.54L401.08 427.54L400.26 427.54L396.55 427.53L395.88 427.53L395.2 427.53L394.53 427.53L393.85 427.53L393.16 427.52L392.47 427.52L391.79 427.51L391.09 427.51L390.4 427.5L389.69 427.49L388.99 427.47L388.28 427.46L387.57 427.44L386.85 427.43L386.13 427.41L385.4 427.38L384.67 427.36L383.93 427.33L383.19 427.3L382.44 427.27L381.69 427.23L380.93 427.2L380.16 427.16L379.39 427.11L378.61 427.06L377.83 427.01L377.03 426.96L376.23 426.9L375.43 426.84L374.61 426.78L373.79 426.71L372.96 426.63L372.12 426.56L371.27 426.48L370.42 426.39L369.55 426.3L368.68 426.21L367.8 426.11L366.91 426.01L366 425.9L365.11 425.79L364.21 425.67L363.31 425.55L362.41 425.43L361.51 425.3L360.62 425.17L359.72 425.04L358.83 424.9L357.93 424.76L357.04 424.61L356.15 424.46L355.25 424.31L354.36 424.16L353.47 424L352.58 423.83L351.69 423.67L350.8 423.5L349.91 423.32L349.02 423.15L348.14 422.97L347.25 422.78L346.37 422.59L345.48 422.4L344.6 422.21L343.71 422.01L342.83 421.81L341.95 421.6L341.07 421.39L340.19 421.18L339.31 420.96L338.43 420.74L337.55 420.52L336.68 420.29L336.51 420.25L336.54 420.41L336.58 420.67L336.63 420.92L336.69 421.18L336.74 421.44L336.79 421.71L336.85 421.98L336.91 422.25L336.97 422.53L337.04 422.81L337.1 423.09L337.17 423.39L337.23 423.64L337.28 423.9L337.34 424.16L337.4 424.43L337.46 424.7L337.52 424.97L337.58 425.25L337.64 425.53L337.7 425.82L337.76 426.11L337.82 426.4L337.88 426.7L337.94 427L338 427.31L338.06 427.63L338.11 427.95L338.17 428.27L338.23 428.6L338.28 428.94L338.33 429.28L338.39 429.63L338.44 429.98L338.49 430.34L338.53 430.71L338.58 431.08L338.62 431.46L338.67 431.85L338.71 432.24L338.75 432.64L338.78 433.05L338.82 433.46L338.85 433.89L338.88 434.32L338.91 434.75L338.94 435.2L338.96 435.66L338.98 436.12L339 436.59L339.01 437.07L339.02 437.56L339.04 438.6L339.04 439.64L339.03 440.67L339.01 441.7L338.97 442.72L338.93 443.73L338.87 444.74L338.8 445.74L338.72 446.74L338.63 447.73L338.52 448.71L338.41 449.69L338.28 450.66L338.14 451.62L337.98 452.58L337.82 453.53L337.64 454.48L337.45 455.42L337.25 456.35L337.04 457.28L336.81 458.2L336.58 459.11L336.33 460.02L336.07 460.92L335.8 461.81L335.51 462.7L335.22 463.58L334.91 464.46L334.59 465.32L334.26 466.18L333.92 467.04L333.56 467.88L333.19 468.72L332.82 469.55L332.43 470.38L332.02 471.2L331.61 472.01L331.18 472.82L330.75 473.61L330.3 474.4L329.78 475.28L329.26 476.14L328.72 476.97L328.19 477.79L327.64 478.58L327.09 479.36L326.53 480.12L325.97 480.86L325.4 481.58L324.83 482.29L324.26 482.97L323.68 483.65L323.09 484.3L322.51 484.94L321.92 485.57L321.32 486.18L320.73 486.77L320.14 487.35L319.54 487.92L318.94 488.47L318.34 489.02L317.74 489.55L317.14 490.06L316.54 490.57L315.95 491.06L315.35 491.55L314.75 492.02L314.16 492.48L313.57 492.94L312.98 493.38L312.4 493.82L311.81 494.25L311.23 494.67L310.66 495.08L310.09 495.48L309.52 495.88L308.96 496.28L308.41 496.66L307.86 497.04L307.32 497.42L306.3 498.12L305.29 498.79L304.29 499.44L303.28 500.07L302.29 500.68L301.3 501.26L300.31 501.83L299.33 502.38L298.36 502.91L297.4 503.42L296.44 503.91L295.48 504.39L294.54 504.85L293.6 505.29L292.67 505.72L291.74 506.13L290.83 506.52L289.92 506.9L289.02 507.27L288.13 507.62L287.24 507.96L286.37 508.29L285.5 508.6L284.64 508.91L283.8 509.2L282.96 509.48L282.13 509.75L281.31 510.01L280.5 510.26L279.71 510.51L278.92 510.74L278.14 510.97L277.38 511.19L276.62 511.4L275.88 511.61L275.15 511.81L274.43 512.01L273.72 512.2L273.02 512.39L272.34 512.57L271.43 512.81L270.53 513.04L269.65 513.26L268.77 513.47L267.91 513.67L267.06 513.86L266.22 514.04L265.39 514.21L264.57 514.38L263.77 514.54L262.98 514.68L262.2 514.83L261.43 514.96L260.68 515.09L259.94 515.2L259.21 515.32L258.5 515.42L257.8 515.52L257.11 515.61L256.44 515.69L255.78 515.77L255.13 515.85L254.5 515.91L253.88 515.98L253.27 516.03L252.68 516.08L252.11 516.13L251.55 516.17L251 516.21L250.47 516.24L249.95 516.27L249.45 516.3L248.97 516.32L248.5 516.34L248.04 516.35L247.6 516.36L247.18 516.37L246.77 516.38L246.38 516.38L246 516.38L245.05 516.38L245.02 516.38L245 516.38L244.98 516.38L244.97 516.38L244.95 516.38L244.94 516.38L244.91 516.38L244.9 516.38L244.87 516.38L244.85 516.38L244.83 516.38L244.81 516.37L244.78 516.37L244.76 516.37L244.73 516.37L244.7 516.37L244.67 516.37L244.6 516.36L244.52 516.35L244.48 516.35L244.38 516.35L244.27 516.34L244.21 516.33L244.15 516.33L243.86 516.31L234.22 515.64L234.17 515.64L233.35 515.58L232.56 515.53L231.8 515.47L231.07 515.42L230.36 515.37L229.69 515.32L229.03 515.27L228.4 515.22L227.8 515.17L227.22 515.12L226.66 515.07L226.12 515.02L225.61 514.96L225.11 514.9L224.64 514.85L224.18 514.79L223.74 514.72L223.31 514.66L222.9 514.59L222.51 514.52L222.13 514.44L221.77 514.36L221.42 514.28L221.08 514.19L220.75 514.09L220.43 513.99L220.12 513.89L219.82 513.78L219.52 513.66L219.24 513.54L218.96 513.41L218.69 513.27L218.42 513.12L218.15 512.97L217.89 512.81L217.63 512.64L217.37 512.47L217.11 512.28L216.85 512.09L216.59 511.88L216.37 511.7L216.15 511.51L215.94 511.32L215.73 511.13L215.53 510.94L215.34 510.75L215.15 510.55L214.96 510.35L214.79 510.15L214.61 509.94L214.45 509.74L214.28 509.53L214.12 509.31L213.97 509.1L213.81 508.88L213.66 508.66L213.52 508.43L213.38 508.2L213.24 507.97L213.1 507.73L212.97 507.49L212.83 507.25L212.7 507L212.57 506.75L212.45 506.5L212.32 506.24L212.2 505.97L212.07 505.71L211.95 505.43L211.82 505.16L211.7 504.88L211.58 504.59L211.45 504.3L211.33 504L211.2 503.7L211.07 503.39L210.95 503.08L210.82 502.77L210.68 502.44L210.55 502.12L210.4 501.74L210.24 501.36L210.09 500.99L209.94 500.61L209.79 500.24L209.64 499.86L209.5 499.49L209.35 499.12L209.21 498.74L209.08 498.37L208.94 498L208.81 497.62L208.68 497.25L208.56 496.88L208.44 496.5L208.33 496.13L208.22 495.75L208.12 495.37L208.02 495L207.92 494.62L207.84 494.24L207.76 493.86L207.68 493.47L207.62 493.09L207.56 492.71L207.5 492.32L207.46 491.93L207.42 491.54L207.4 491.14L207.38 490.75L207.36 490.35L207.36 489.95L207.37 489.55L207.39 489.14L207.41 488.73L207.45 488.32L207.5 487.91L207.56 487.49L207.63 487.07L207.71 486.65L207.84 486.05L207.99 485.46L208.17 484.89L208.35 484.32L208.56 483.78L208.78 483.24L209.01 482.72L209.26 482.21L209.53 481.72L209.8 481.23L210.09 480.76L210.39 480.3L210.7 479.85L211.02 479.42L211.35 478.99L211.69 478.58L212.04 478.18L212.39 477.79L212.75 477.41L213.11 477.04L213.48 476.68L213.85 476.33L214.23 475.99L214.61 475.66L214.98 475.33L215.36 475.02L215.75 474.72L216.12 474.43L216.5 474.14L216.88 473.87L217.25 473.6L217.62 473.34L217.99 473.09L218.35 472.85L218.7 472.61L219.05 472.39L219.39 472.17L219.72 471.95L220.04 471.75L220.36 471.55L220.72 471.33L221.08 471.11L221.45 470.9L221.81 470.69L222.18 470.48L222.55 470.28L222.93 470.09L223.3 469.9L223.68 469.71L224.06 469.53L224.44 469.35L224.82 469.18L225.21 469.01L225.6 468.84L225.98 468.68L226.37 468.52L226.77 468.37L227.16 468.23L227.56 468.08L227.95 467.94L228.35 467.81L228.75 467.68L229.15 467.56L229.55 467.44L229.96 467.32L230.36 467.21L230.77 467.1L231.18 467L231.59 466.9L232 466.81L232.41 466.72L232.82 466.64L233.24 466.56L233.65 466.49L234.07 466.42L234.49 466.35L234.9 466.29L235.32 466.24L235.74 466.18L236.16 466.14L236.34 466.12L236.52 466.1L236.69 466.08L236.87 466.07L237.05 466.05L237.23 466.04L237.41 466.02L237.58 466.01L237.76 466L237.94 465.99L238.12 465.98L238.3 465.98L238.47 465.97L238.65 465.97L238.83 465.96L239.01 465.96L239.19 465.96L239.37 465.96L239.54 465.96L239.72 465.96L239.9 465.97L240.08 465.97L240.26 465.98L240.43 465.99L240.61 466L240.79 466.01L240.97 466.02L241.15 466.03L241.32 466.04L241.5 466.06L241.68 466.07L241.86 466.09L242.03 466.11L242.21 466.13L242.39 466.15L242.57 466.17L242.74 466.2L242.92 466.22L243.1 466.25L243.27 466.27L243.32 466.28L243.46 466.3L243.51 466.31L243.54 466.31L243.57 466.31L243.62 466.32L243.67 466.33L243.7 466.33L243.75 466.34L243.78 466.34L243.8 466.35L243.83 466.35L243.85 466.35L243.88 466.35L243.9 466.36L243.93 466.36L243.95 466.36L243.97 466.37L243.99 466.37L244.01 466.37L244.04 466.37L244.06 466.37L244.08 466.38L244.09 466.38L244.11 466.38L244.13 466.38L244.15 466.38L244.16 466.38L244.18 466.38L244.19 466.38L244.2 466.38L244.26 466.36L244.32 466.32L244.39 466.28L244.47 466.22L244.55 466.15L244.63 466.06L244.73 465.97L244.82 465.86L244.93 465.74L245.03 465.61L245.14 465.46L245.25 465.29L245.37 465.11L245.49 464.92L245.61 464.71L245.74 464.48L245.86 464.23L245.99 463.97L246.12 463.69L246.25 463.4L246.38 463.08L246.51 462.74L246.64 462.39L246.78 462.01L246.91 461.62L247.04 461.2L247.16 460.77L247.29 460.31L247.42 459.83L247.54 459.33L247.66 458.8L247.78 458.25L247.89 457.68L248 457.08L248.11 456.46L248.21 455.81L248.31 455.14L248.4 454.44L248.49 453.72L248.57 452.97L248.64 452.29L248.7 451.6L248.76 450.91L248.8 450.21L248.85 449.5L248.89 448.78L248.92 448.06L248.94 447.33L248.96 446.59L248.98 445.85L248.99 445.11L248.99 444.35L248.99 443.6L248.98 442.83L248.97 442.07L248.95 441.3L248.92 440.52L248.89 439.74L248.86 438.96L248.81 438.17L248.77 437.38L248.71 436.59L248.65 435.8L248.59 435L248.52 434.2L248.45 433.4L248.37 432.6L248.28 431.8L248.19 431L248.09 430.19L247.99 429.39L247.88 428.59L247.77 427.78L247.65 426.98L247.53 426.18L247.4 425.38L247.26 424.58L247.12 423.78L246.98 422.98L246.83 422.19L246.47 420.39L246.08 418.61L246.05 418.5L245.92 418.73L245.66 419.17L245.39 419.6L245.23 419.85L245.08 420.1L244.94 420.34L244.8 420.58L244.67 420.81L244.54 421.05L244.42 421.28L244.3 421.5L244.19 421.73L244.08 421.95L243.98 422.17L243.88 422.39L243.78 422.6L243.69 422.81L243.6 423.03L243.52 423.24L243.44 423.45L243.36 423.66L243.28 423.86L243.21 424.07L243.14 424.28L243.07 424.49L243 424.69L242.93 424.9L242.87 425.11L242.8 425.31L242.74 425.52L242.67 425.73L242.61 425.94L242.55 426.16L242.49 426.37L242.42 426.58L242.34 426.87L242.25 427.17L242.16 427.46L242.07 427.76L241.98 428.06L241.89 428.37L241.79 428.68L241.68 428.99L241.58 429.3L241.47 429.62L241.35 429.95L241.23 430.28L241.1 430.61L240.97 430.95L240.83 431.29L240.68 431.64L240.52 432L240.36 432.36L240.19 432.72L240.01 433.09L239.82 433.47L239.61 433.85L239.4 434.25L239.18 434.64L238.95 435.05L238.71 435.46L238.45 435.88L238.18 436.3L237.9 436.74L237.6 437.18L237.29 437.63L236.97 438.09L236.62 438.57L236.27 439.02L235.92 439.46L235.57 439.88L235.22 440.28L234.87 440.67L234.53 441.03L234.18 441.38L233.83 441.71L233.48 442.03L233.14 442.34L232.8 442.63L232.45 442.9L232.11 443.17L231.77 443.42L231.43 443.65L231.1 443.88L230.77 444.1L230.43 444.31L230.11 444.5L229.78 444.69L229.46 444.87L229.14 445.04L228.82 445.21L228.5 445.37L228.19 445.52L227.88 445.67L227.58 445.81L227.28 445.95L226.98 446.09L226.69 446.22L226.4 446.35L226.26 446.41L226.12 446.47L225.99 446.54L225.85 446.6L225.72 446.66L225.59 446.72L225.46 446.78L225.33 446.84L225.2 446.89L225.08 446.95L224.96 447.01L224.84 447.07L224.72 447.13L224.6 447.19L224.48 447.25L224.37 447.31L224.25 447.38L224.14 447.44L224.03 447.5L223.92 447.57L223.81 447.63L223.71 447.7L223.6 447.76L223.5 447.83L223.4 447.9L223.3 447.97L223.2 448.05L223.1 448.12L223 448.2L222.91 448.27L222.81 448.35L222.72 448.44L222.33 448.78L221.92 449.11L221.51 449.43L221.09 449.74L220.66 450.04L220.22 450.33L219.77 450.61L219.31 450.88L218.85 451.14L218.37 451.38L217.89 451.62L217.39 451.84L216.89 452.06L216.38 452.26L215.86 452.45L215.33 452.63L214.79 452.8L214.25 452.96L213.69 453.11L213.13 453.25L212.55 453.38L211.97 453.49L211.38 453.6L210.78 453.69L210.18 453.77L209.56 453.84L208.94 453.9L208.3 453.95L207.66 453.99L207.34 454.01L207.35 454.06L207.53 454.65L207.7 455.23L207.84 455.77L207.97 456.29L208.08 456.79L208.18 457.27L208.27 457.73L208.34 458.17L208.4 458.59L208.45 459L208.48 459.39L208.51 459.76L208.52 460.13L208.53 460.48L208.52 460.82L208.51 461.16L208.49 461.48L208.47 461.81L208.44 462.12L208.4 462.44L208.36 462.75L208.32 463.06L208.28 463.29L208.24 463.53L208.2 463.78L208.15 464.03L208.1 464.3L208.04 464.58L207.98 464.86L207.91 465.16L207.84 465.46L207.76 465.77L207.68 466.08L207.59 466.4L207.49 466.73L207.39 467.07L207.28 467.41L207.16 467.75L207.04 468.1L206.91 468.46L206.77 468.81L206.62 469.18L206.47 469.55L206.3 469.92L206.13 470.29L205.95 470.66L205.76 471.04L205.57 471.42L205.36 471.81L205.14 472.19L204.92 472.57L204.68 472.96L204.44 473.34L204.18 473.73L203.91 474.11L203.64 474.5L203.35 474.88L203.05 475.26L202.74 475.64L202.41 476.02L202.08 476.4L201.73 476.77L201.24 477.28L200.73 477.77L200.22 478.24L199.7 478.68L199.17 479.11L198.64 479.51L198.11 479.9L197.57 480.26L197.03 480.61L196.48 480.94L195.94 481.25L195.39 481.55L194.84 481.83L194.29 482.09L193.75 482.33L193.2 482.56L192.65 482.78L192.11 482.98L191.57 483.17L191.04 483.34L190.5 483.5L189.98 483.65L189.46 483.78L188.94 483.91L188.43 484.02L187.93 484.12L187.43 484.21L186.95 484.29L186.47 484.37L186.01 484.43L185.55 484.49L185.1 484.53L184.67 484.58L184.25 484.61L183.84 484.64L183.44 484.66L183.06 484.67L182.69 484.68L182.34 484.69L182.01 484.69L181.94 484.69L181.88 484.69L181.81 484.69L181.75 484.69L181.68 484.69L181.62 484.69L181.55 484.69L181.48 484.69L181.42 484.69L181.35 484.69L181.29 484.68L181.22 484.68L181.16 484.68L181.09 484.68L181.03 484.68L180.96 484.67L180.9 484.67L180.83 484.67L180.77 484.67L180.7 484.66L180.64 484.66L180.57 484.66L180.51 484.65L180.44 484.65L180.38 484.64L180.31 484.64L180.25 484.64L180.18 484.63L180.12 484.63L180.05 484.62L179.99 484.62L179.92 484.61L179.86 484.61L179.79 484.6L179.73 484.59L179.66 484.59L179.6 484.58L179.53 484.58L179.47 484.57L179.4 484.56L178.83 484.49L178.27 484.39L177.71 484.29L177.15 484.16L176.6 484.02L176.06 483.86L175.52 483.69L174.98 483.49L174.44 483.29L173.91 483.06L173.38 482.82L172.85 482.57L172.32 482.3L171.79 482.01L171.26 481.71L170.73 481.39L170.2 481.05L169.66 480.71L169.13 480.34L168.59 479.96L168.04 479.57L167.49 479.16L166.94 478.73L166.38 478.29L165.82 477.84L165.25 477.37L164.67 476.88L164.09 476.38L163.5 475.87L162.9 475.34L162.29 474.8L161.67 474.25L161.04 473.68L160.4 473.1L159.75 472.5L159.08 471.89L158.41 471.26L157.72 470.62L157.02 469.97L156.31 469.31L155.72 468.76L155.14 468.22L154.57 467.69L154.01 467.16L153.46 466.64L152.91 466.13L152.37 465.61L151.84 465.11L151.31 464.6L150.79 464.1L150.28 463.6L149.78 463.11L149.28 462.61L148.79 462.11L148.3 461.62L147.82 461.12L147.35 460.63L146.88 460.13L146.42 459.63L145.96 459.13L145.51 458.62L145.07 458.11L144.63 457.6L144.19 457.08L143.76 456.56L143.33 456.03L142.91 455.5L142.5 454.96L142.09 454.41L141.68 453.85L141.28 453.29L140.88 452.71L140.48 452.13L140.09 451.54L139.7 450.93L139.32 450.32L138.93 449.69L138.56 449.06L138.18 448.4L137.81 447.74L137.66 447.48L137.51 447.21L137.36 446.92L137.2 446.63L137.03 446.33L136.86 446.01L136.69 445.68L136.51 445.35L136.33 445L136.15 444.64L135.96 444.27L135.77 443.89L135.58 443.5L135.39 443.09L135.2 442.68L135 442.26L134.81 441.83L134.61 441.38L134.42 440.93L134.23 440.46L134.03 439.99L133.84 439.5L133.65 439L133.46 438.5L133.28 437.98L133.1 437.45L132.92 436.92L132.74 436.37L132.57 435.81L132.4 435.24L132.23 434.67L132.07 434.08L131.92 433.48L131.77 432.87L131.63 432.25L131.49 431.62L131.36 430.99L131.24 430.34L131.12 429.68L131.01 429.01L130.94 428.54L130.88 428.07L130.82 427.59L130.76 427.12L130.71 426.65L130.66 426.17L130.62 425.7L130.58 425.22L130.55 424.75L130.52 424.27L130.49 423.8L130.47 423.32L130.45 422.85L130.44 422.37L130.43 421.9L130.42 421.42L130.42 420.95L130.43 420.47L130.43 420L130.44 419.52L130.46 419.05L130.48 418.57L130.5 418.1L130.53 417.62L130.57 417.15L130.6 416.67L130.64 416.2L130.69 415.73L130.74 415.25L130.79 414.78L130.85 414.31L130.91 413.83L130.98 413.36L131.05 412.89L131.12 412.42L131.2 411.95L131.29 411.48L131.37 411.01L131.47 410.55L131.56 410.08L131.66 409.6L131.76 409.14L131.87 408.68L131.98 408.24L132.08 407.8L132.19 407.37L132.31 406.95L132.42 406.54L132.54 406.14L132.66 405.75L132.77 405.36L132.89 404.98L133.02 404.61L133.14 404.25L133.26 403.9L133.39 403.55L133.52 403.21L133.64 402.87L133.77 402.54L133.9 402.22L134.03 401.91L134.16 401.59L134.29 401.29L134.42 400.99L134.56 400.69L134.69 400.4L134.82 400.12L134.95 399.84L135.09 399.56L135.22 399.29L135.35 399.02L135.49 398.75L135.62 398.49L135.75 398.23L135.88 397.98L136.01 397.72L136.14 397.47L136.27 397.22L136.4 396.98L136.53 396.73L136.66 396.49L136.79 396.25L136.91 396.01L137.03 395.78L137.15 395.55L137.27 395.32L137.39 395.09L137.5 394.86L137.61 394.63L137.72 394.41L137.83 394.18L137.94 393.96L138.04 393.73L138.14 393.5L138.24 393.27L138.34 393.05L138.43 392.81L138.52 392.58L138.61 392.35L138.7 392.11L138.79 391.87L138.87 391.63L138.95 391.38L139.03 391.13L139.1 390.88L139.18 390.62L139.25 390.35L139.31 390.09L139.38 389.81L139.44 389.53L139.5 389.25L139.55 388.96L139.61 388.66L139.66 388.36L139.7 388.04L139.75 387.73L139.79 387.4L139.83 387.06L139.86 386.72L139.9 386.37L139.92 386.11L139.94 385.84L139.96 385.57L139.98 385.3L140 385.02L140.02 384.74L140.04 384.46L140.06 384.17L140.07 383.87L140.09 383.58L140.09 383.28L140.1 382.98L140.1 382.68L140.1 382.37L140.1 382.06L140.09 381.75L140.08 381.44L140.06 381.12L140.04 380.81L140.01 380.49L139.97 380.17L139.93 379.85L139.89 379.53L139.83 379.21L139.77 378.89L139.7 378.56L139.63 378.24L139.55 377.92L139.45 377.6L139.35 377.27L139.25 376.95L139.13 376.63L139 376.31L138.9 376.08L135.49 371.52L135.35 371.4L135.1 371.2L134.85 371L134.6 370.82L134.35 370.64L134.1 370.47L133.85 370.3L133.59 370.14L133.34 369.99L133.09 369.84L132.84 369.7L132.58 369.57L132.33 369.44L132.09 369.32L131.84 369.2L131.6 369.09L131.35 368.98L131.12 368.88L130.88 368.79L130.65 368.7L130.42 368.61L130.2 368.53L129.98 368.45L129.77 368.38L129.56 368.32L129.36 368.25L129.34 368.25L129 368.28L128.02 368.37L127.15 368.44L127.07 368.54L126.66 369.07L126.24 369.59L125.82 370.1L125.38 370.6L124.94 371.09L124.49 371.57L124.03 372.05L123.57 372.51L123.1 372.97L122.62 373.42L122.13 373.86L121.64 374.29L121.14 374.71L120.63 375.12L120.12 375.52L119.6 375.92L119.07 376.3L118.53 376.68L118.04 377.01L117.54 377.33L117.04 377.64L116.54 377.93L116.03 378.22L115.52 378.49L115 378.75L114.48 379.01L113.95 379.25L113.41 379.48L112.87 379.71L112.32 379.92L111.76 380.13L111.19 380.33L110.62 380.52L110.04 380.71L109.44 380.89L108.84 381.06L108.23 381.23L107.61 381.39L106.97 381.54L106.33 381.69L105.67 381.84L105.01 381.99L104.33 382.13L103.63 382.26L102.93 382.4L102.21 382.53L101.48 382.66L100.73 382.79L99.97 382.91L99.2 383.04L98.41 383.16L97.6 383.29L96.78 383.42L95.94 383.54L95.09 383.67L94.22 383.8L93.33 383.93L92.42 384.06L91.99 384.13L91.56 384.19L91.14 384.25L90.73 384.31L90.33 384.36L89.94 384.41L89.55 384.47L89.17 384.51L88.8 384.56L88.43 384.61L88.07 384.65L87.71 384.7L87.35 384.74L87 384.78L86.65 384.82L86.31 384.85L85.97 384.89L85.63 384.92L85.29 384.96L84.95 384.99L84.61 385.02L84.27 385.06L83.93 385.09L83.59 385.12L83.24 385.15L82.9 385.18L82.55 385.21L82.2 385.24L81.84 385.26L81.49 385.29L81.12 385.32L80.75 385.35L80.38 385.38L80 385.41L79.61 385.43L79.21 385.46L78.81 385.49L78.4 385.52L77.98 385.55L77.55 385.59L77.35 385.6L77.15 385.61L76.94 385.63L76.73 385.64L76.52 385.66L76.31 385.68L76.09 385.69L75.87 385.71L75.65 385.72L75.43 385.74L75.2 385.76L74.97 385.77L74.74 385.79L74.5 385.81L74.27 385.83L74.02 385.84L73.78 385.86L73.53 385.88L73.28 385.9L73.02 385.92L72.77 385.94L72.5 385.96L72.24 385.98L71.97 386L71.7 386.02L71.43 386.04L71.15 386.06L70.87 386.08L70.58 386.11L70.29 386.13L70 386.15L69.7 386.18L69.4 386.2L69.1 386.22L68.79 386.25L68.47 386.27L68.16 386.3L67.84 386.33L67.51 386.35L67.19 386.38L66.84 386.41L66.49 386.44L66.15 386.46L65.81 386.49L65.48 386.52L65.15 386.55L64.82 386.58L64.49 386.6L64.17 386.63L63.84 386.66L63.53 386.69L63.21 386.71L62.9 386.74L62.59 386.77L62.28 386.79L61.97 386.82L61.67 386.85L61.37 386.87L61.07 386.9L60.77 386.93L60.48 386.95L60.19 386.98L59.9 387L59.61 387.03L59.33 387.06L59.05 387.08L58.77 387.11L58.49 387.13L58.21 387.16L57.94 387.18L57.67 387.21L57.4 387.23L57.13 387.26L56.87 387.28L56.6 387.3L56.34 387.33L56.08 387.35L55.82 387.38L55.56 387.4L55.31 387.42L54.76 387.47L54.22 387.53L53.7 387.58L53.18 387.63L52.66 387.67L52.16 387.72L51.67 387.77L51.18 387.81L50.7 387.86L50.23 387.9L49.76 387.94L49.3 387.98L48.85 388.02L48.41 388.06L47.97 388.1L47.53 388.13L47.11 388.17L46.68 388.2L46.27 388.23L45.86 388.26L45.45 388.29L45.05 388.32L44.65 388.35L44.26 388.37L43.87 388.39L43.48 388.42L43.1 388.44L42.72 388.46L42.34 388.47L41.97 388.49L41.6 388.51L41.23 388.52L40.87 388.53L40.5 388.54L40.14 388.55L39.78 388.56L39.42 388.56L39.06 388.57L38.7 388.57L38.34 388.57L38.12 388.57L37.89 388.57L37.66 388.57L37.44 388.56L37.21 388.56L36.98 388.56L36.76 388.55L36.53 388.55L36.3 388.54L36.08 388.53L35.85 388.53L35.62 388.52L35.4 388.51L35.17 388.5L34.94 388.49L34.72 388.48L34.49 388.47L34.26 388.46L34.04 388.45L33.81 388.43L33.58 388.42L33.36 388.41L33.13 388.39L32.91 388.38L32.68 388.36L32.45 388.34L32.23 388.33L32 388.31L31.78 388.29L31.55 388.27L31.32 388.25L31.1 388.23L30.87 388.21L30.65 388.19L30.42 388.16L30.2 388.14L29.97 388.12L29.74 388.09L29.52 388.07L29.29 388.04L28.85 387.99L28.4 387.94L27.97 387.89L27.53 387.84L27.1 387.78L26.68 387.72L26.26 387.67L25.85 387.61L25.44 387.54L25.04 387.48L24.64 387.42L24.24 387.35L23.86 387.29L23.47 387.22L23.09 387.15L22.71 387.08L22.34 387L21.98 386.93L21.61 386.85L21.26 386.78L20.9 386.7L20.56 386.62L20.21 386.54L19.87 386.45L19.54 386.37L19.21 386.28L18.88 386.19L18.56 386.1L18.24 386.01L17.93 385.92L17.62 385.83L17.31 385.73L17.01 385.63L16.71 385.54L16.42 385.44L16.13 385.33L15.85 385.23L15.57 385.13L15.29 385.02L15.02 384.91L14.74 384.8L14.47 384.69L14.21 384.58L13.96 384.46L13.7 384.35L13.46 384.24L13.22 384.12L12.99 384.01L12.76 383.89L12.54 383.77L12.32 383.66L12.11 383.54L11.9 383.43L11.7 383.31L11.5 383.19L11.31 383.08L11.12 382.96L10.94 382.84L10.76 382.73L10.59 382.61L10.42 382.49L10.25 382.38L10.09 382.26L9.94 382.15L9.78 382.04L9.63 381.92L9.49 381.81L9.35 381.7L9.21 381.59L9.08 381.48L8.95 381.37L8.82 381.26L8.7 381.15L8.58 381.04L8.46 380.94L8.34 380.83L8.23 380.73L8.12 380.63L8.02 380.53L7.92 380.43L7.52 380.04L7.13 379.64L6.75 379.23L6.37 378.81L6 378.37L5.63 377.92L5.27 377.47L4.92 377L4.57 376.52L4.23 376.03L3.91 375.54L3.59 375.03L3.28 374.52L2.98 373.99L2.69 373.46L2.42 372.93L2.15 372.38L1.9 371.83L1.67 371.28L1.44 370.72L1.23 370.15L1.03 369.58L0.85 369L0.69 368.42L0.54 367.84L0.41 367.26L0.29 366.67L0.2 366.08L0.12 365.48L0.06 364.89L0.02 364.3L0 363.7L0 363.1L0.02 362.51L0.06 361.92L0.13 361.32L0.22 360.73L0.33 360.14L0.46 359.55L0.62 358.97L0.71 358.65L0.81 358.35L0.92 358.05L1.03 357.76L1.14 357.48L1.26 357.2L1.38 356.94L1.51 356.68L1.64 356.43L1.77 356.18L1.91 355.95L2.05 355.72L2.19 355.49L2.34 355.27L2.49 355.06L2.65 354.85L2.8 354.65L2.96 354.45L3.12 354.26L3.29 354.07L3.45 353.89L3.62 353.71L3.79 353.54L3.97 353.36L4.14 353.2L4.32 353.03L4.49 352.87L4.67 352.72L4.85 352.56L5.03 352.41L5.22 352.26L5.4 352.11L5.58 351.97L5.77 351.83L5.96 351.68L6.14 351.54L6.33 351.4L6.51 351.27L6.7 351.13L6.89 350.99L7.03 350.88L7.18 350.77L7.33 350.66L7.48 350.55L7.63 350.43L7.78 350.32L7.94 350.2L8.09 350.08L8.25 349.96L8.41 349.84L8.57 349.72L8.72 349.59L8.89 349.46L9.05 349.33L9.21 349.19L9.38 349.05L9.54 348.91L9.71 348.77L9.88 348.62L10.05 348.47L10.22 348.31L10.4 348.15L10.57 347.99L10.75 347.82L10.93 347.65L11.1 347.47L11.29 347.29L11.47 347.1L11.65 346.91L11.84 346.71L12.03 346.51L12.22 346.3L12.41 346.09L12.6 345.87L12.8 345.65L12.99 345.42L13.19 345.18L13.39 344.93L13.6 344.68L13.8 344.43L14.03 344.13L14.25 343.83L14.47 343.53L14.69 343.23L14.91 342.92L15.13 342.62L15.34 342.31L15.55 342L15.75 341.69L15.96 341.38L16.16 341.06L16.35 340.75L16.55 340.43L16.74 340.11L16.93 339.79L17.12 339.47L17.3 339.15L17.49 338.82L17.67 338.49L17.84 338.17L18.02 337.84L18.19 337.51L18.35 337.17L18.52 336.84L18.68 336.5L18.84 336.17L19 335.83L19.15 335.49L19.3 335.15L19.45 334.81L19.6 334.46L19.74 334.12L19.88 333.77L20.02 333.43L20.15 333.08L20.28 332.73L20.41 332.38L20.54 332.02L20.66 331.67L20.78 331.32L20.84 331.13L20.9 330.95L20.95 330.77L21.01 330.59L21.06 330.42L21.11 330.25L21.15 330.09L21.2 329.93L21.24 329.77L21.29 329.62L21.33 329.46L21.36 329.31L21.4 329.16L21.44 329.02L21.47 328.87L21.5 328.73L21.53 328.59L21.56 328.45L21.59 328.31L21.62 328.17L21.64 328.03L21.67 327.89L21.69 327.76L21.72 327.62L21.74 327.48L21.76 327.34L21.78 327.2L21.81 327.06L21.83 326.91L21.85 326.77L21.87 326.62L21.89 326.47L21.91 326.32L21.93 326.17L21.94 326.02L21.96 325.86L21.98 325.7L22 325.53L22.02 325.37L22.04 325.19L22.06 325.05L22.08 324.9L22.1 324.75L22.12 324.6L22.14 324.45L22.15 324.29L22.18 324.13L22.2 323.96L22.22 323.79L22.24 323.62L22.26 323.45L22.29 323.27L22.31 323.09L22.34 322.9L22.36 322.71L22.39 322.52L22.42 322.32L22.45 322.12L22.48 321.91L22.51 321.7L22.54 321.49L22.57 321.27L22.61 321.05L22.64 320.82L22.68 320.59L22.72 320.35L22.76 320.11L22.8 319.87L22.84 319.62L22.88 319.36L22.93 319.1L22.97 318.83L23.02 318.56L23.07 318.28L23.12 318L23.17 317.71L23.23 317.42L23.28 317.12L23.34 316.81L23.4 316.5L23.55 315.76L23.69 315.03L23.83 314.33L23.96 313.64L24.1 312.97L24.23 312.31L24.36 311.67L24.48 311.05L24.61 310.45L24.73 309.86L24.85 309.28L24.97 308.72L25.09 308.17L25.21 307.64L25.33 307.12L25.45 306.62L25.57 306.13L25.69 305.65L25.81 305.18L25.94 304.73L26.06 304.29L26.19 303.86L26.31 303.44L26.44 303.03L26.57 302.63L26.7 302.24L26.84 301.86L26.98 301.49L27.12 301.13L27.27 300.77L27.42 300.43L27.57 300.09L27.73 299.76L27.89 299.44L28.05 299.12L28.23 298.81L28.4 298.51L28.58 298.21L28.77 297.92L28.97 297.63L29.2 297.3L29.44 296.97L29.68 296.66L29.92 296.35L30.16 296.06L30.4 295.77L30.64 295.5L30.88 295.23L31.13 294.97L31.37 294.73L31.62 294.49L31.86 294.26L32.11 294.03L32.35 293.82L32.6 293.61L32.84 293.41L33.09 293.22L33.33 293.03L33.58 292.85L33.82 292.67L34.07 292.51L34.31 292.34L34.56 292.19L34.8 292.03L35.05 291.89L35.29 291.74L35.53 291.61L35.78 291.47L36.02 291.34L36.26 291.21L36.5 291.09L36.74 290.97L36.97 290.85L37.21 290.74L37.45 290.63L37.68 290.52L37.91 290.41L38.15 290.3L38.38 290.19L38.61 290.09L38.8 290L39 289.91L39.19 289.82L39.39 289.72L39.58 289.63L39.78 289.54L39.97 289.45L40.17 289.35L40.36 289.26L40.56 289.16L40.75 289.06L40.95 288.96L41.15 288.85L41.34 288.75L41.54 288.64L41.74 288.53L41.93 288.41L42.13 288.29L42.33 288.17L42.53 288.05L42.73 287.92L42.93 287.79L43.14 287.65L43.34 287.51L43.55 287.36L43.75 287.21L43.96 287.05L44.17 286.89L44.38 286.72L44.59 286.55L44.81 286.37L45.02 286.18L45.24 285.99L45.46 285.79L45.68 285.59L45.9 285.37L46.13 285.15L46.35 284.93L46.58 284.69L46.82 284.45L47.18 284.05L47.54 283.65L47.89 283.25L48.22 282.85L48.55 282.44L48.86 282.03L49.17 281.63L49.46 281.22L49.75 280.82L50.02 280.41L50.29 280.01L50.54 279.61L50.79 279.21L51.02 278.82L51.25 278.42L51.47 278.04L51.68 277.65L51.88 277.27L52.08 276.9L52.26 276.53L52.44 276.17L52.61 275.81L52.77 275.47L52.92 275.12L53.07 274.79L53.21 274.47L53.34 274.15L53.46 273.85L53.58 273.55L53.69 273.26L53.8 272.99L53.89 272.72L53.99 272.47L54.07 272.23L54.15 272L54.22 271.79L54.29 271.59L54.35 271.4L54.41 271.23L54.46 271.07L54.6 270.66L54.72 270.25L54.84 269.84L54.96 269.44L55.07 269.04L55.17 268.65L55.26 268.26L55.36 267.88L55.44 267.49L55.52 267.12L55.6 266.74L55.67 266.37L55.73 266.01L55.79 265.65L55.85 265.29L55.9 264.94L55.95 264.58L55.99 264.24L56.03 263.9L56.07 263.56L56.1 263.22L56.13 262.89L56.16 262.56L56.19 262.24L56.21 261.92L56.23 261.6L56.24 261.28L56.26 260.97L56.27 260.67L56.28 260.36L56.29 260.06L56.3 259.77L56.3 259.48L56.31 259.19L56.31 258.9L56.32 258.62L56.32 258.34L56.32 258.06L56.32 257.79L56.32 257.52L56.32 257.22L56.33 256.91L56.33 256.6L56.33 256.3L56.34 255.99L56.34 255.69L56.35 255.38L56.37 255.08L56.38 254.77L56.4 254.47L56.42 254.17L56.44 253.87L56.47 253.58L56.51 253.28L56.55 252.99L56.59 252.7L56.64 252.41L56.7 252.12L56.76 251.84L56.83 251.56L56.91 251.29L56.99 251.02L57.09 250.75L57.19 250.48L57.3 250.23L57.41 249.97L57.54 249.72L57.68 249.47L57.83 249.23L57.98 249L58.15 248.76L58.33 248.54L58.52 248.32L58.73 248.11L58.94 247.9L59.17 247.7L59.41 247.5L59.67 247.31L59.94 247.13L60.22 246.96L60.41 246.85L60.6 246.75L60.8 246.65L60.99 246.56L61.19 246.47L61.39 246.39L61.59 246.31L61.79 246.24L62 246.18L62.21 246.12L62.41 246.07L62.62 246.02L62.83 245.98L63.05 245.94L63.26 245.91L63.48 245.89L63.69 245.87L63.91 245.85L64.13 245.85L64.36 245.84L64.58 245.85L64.8 245.86L65.03 245.87L65.26 245.89L65.49 245.92L65.72 245.95L65.95 245.99L66.19 246.03L66.42 246.08L66.66 246.13L66.9 246.19L67.14 246.26L67.38 246.33L67.62 246.4L67.87 246.49L68.11 246.57L68.36 246.67L68.61 246.77L68.86 246.87L69.11 246.98L69.36 247.09L69.6 247.21L69.85 247.34L70.11 247.46L70.36 247.6L70.62 247.74L70.88 247.89L71.15 248.04L71.42 248.2L71.69 248.36L71.96 248.53L72.24 248.71L72.52 248.89L72.81 249.08L73.1 249.27L73.39 249.47L73.68 249.68L73.98 249.89L74.28 250.11L74.59 250.34L74.9 250.57L75.21 250.81L75.53 251.05L75.85 251.3L76.18 251.56L76.51 251.82L76.84 252.09L77.18 252.37L77.52 252.65L77.86 252.94L78.21 253.24L78.28 253.3L78.35 253.23L78.53 253.03L78.71 252.83L78.9 252.63L79.08 252.43L79.27 252.22L79.46 252.01L79.65 251.8L79.84 251.59L80.04 251.37L80.23 251.16L80.43 250.94L80.63 250.71L80.83 250.49L81.04 250.26L81.24 250.04L81.45 249.81L81.65 249.57L81.86 249.34L82.07 249.1L82.28 248.87L82.5 248.63L82.71 248.39L82.93 248.14L83.38 247.63L83.84 247.12L84.31 246.6L84.78 246.07L85.25 245.54L85.73 245.01L86.22 244.47L86.71 243.92L87.2 243.38L87.7 242.83L88.21 242.27L88.72 241.72L89.23 241.16L89.75 240.6L90.27 240.04L90.8 239.48L91.33 238.91L91.86 238.35L92.4 237.79L92.95 237.22L93.5 236.66L94.05 236.1L94.6 235.54L95.16 234.98L95.72 234.42L96.29 233.86L96.86 233.31L97.43 232.76L98.01 232.21L98.59 231.67L99.17 231.13L99.76 230.59L100.35 230.06L100.94 229.53L101.53 229.01L102.13 228.5L102.73 227.98L103.33 227.48L103.94 226.98L104.55 226.49L105.81 225.48L107.07 224.49L108.31 223.51L109.55 222.56L110.77 221.61L111.98 220.69L113.19 219.78L114.38 218.88L115.57 218L116.74 217.14L117.91 216.28L119.07 215.44L120.22 214.62L121.37 213.8L122.5 213L123.63 212.21L124.75 211.43L125.87 210.67L126.98 209.91L128.08 209.16L129.18 208.42L130.27 207.69L131.36 206.97L132.44 206.26L133.52 205.56L134.59 204.86L135.66 204.17L136.72 203.49L137.79 202.81L138.85 202.14L139.9 201.47L140.96 200.81L142.01 200.15L143.06 199.5L144.1 198.85L145.15 198.21L146.2 197.56L147.24 196.92L148.28 196.28L149.33 195.64L152.36 193.79L155.32 191.98L158.2 190.22L161.01 188.5L163.74 186.83L166.41 185.2L169 183.62L171.53 182.08L173.98 180.58L176.37 179.13L178.69 177.72L180.95 176.35L183.14 175.02L185.26 173.73L187.33 172.49L189.33 171.28L191.27 170.11L193.15 168.98L194.97 167.89L196.73 166.84L198.44 165.83L200.09 164.85L201.69 163.91L203.23 163.01L204.71 162.14L206.15 161.31L207.53 160.51L208.87 159.75L210.15 159.02L211.39 158.33L212.58 157.66L213.72 157.03L214.82 156.44L215.87 155.87L216.88 155.34L217.85 154.84L218.77 154.37L219.66 153.92L220.5 153.51L221.31 153.13L222.9 152.39L224.5 151.66L226.1 150.94L227.7 150.23L229.31 149.54L230.92 148.85L232.53 148.18L234.15 147.51L235.77 146.86L237.4 146.22L239.03 145.59L240.67 144.97L242.31 144.36L243.96 143.76L245.61 143.17L247.27 142.59L248.93 142.02L250.6 141.46L252.27 140.91L253.95 140.38L255.63 139.85L257.32 139.33L259.02 138.82L260.72 138.33L262.43 137.84L264.14 137.36L265.86 136.9L267.59 136.44L269.32 136L271.06 135.56L272.81 135.13L274.57 134.72L276.33 134.31L278.1 133.91L279.87 133.52L281.66 133.15L283.45 132.78L285.25 132.42L287.05 132.07L288.87 131.73L290.49 131.44L292.1 131.15L293.72 130.88L295.33 130.61L296.95 130.35L298.56 130.09L300.18 129.85L301.79 129.61L303.4 129.38L305.01 129.15L306.61 128.93L308.22 128.72L309.83 128.52L311.43 128.32L313.03 128.12L314.63 127.93L316.23 127.75L317.83 127.57L319.43 127.4L321.02 127.23L322.62 127.06L324.21 126.9L325.8 126.75L327.39 126.59L328.97 126.44L330.55 126.3L332.14 126.16L333.72 126.02L335.29 125.88L336.87 125.75L338.44 125.61L340.01 125.48L341.58 125.36L343.15 125.23L344.71 125.11L346.27 124.98L347.83 124.86L349.39 124.74L350.94 124.62L352.49 124.5L355.34 124.28L358.15 124.06L360.92 123.85L363.66 123.64L366.37 123.44L369.04 123.25L371.69 123.07L374.31 122.9L376.9 122.73L379.47 122.58L382.01 122.44L384.54 122.32L387.04 122.21L389.53 122.11L392.01 122.04L394.47 121.97L396.91 121.93L399.35 121.91L401.78 121.9L404.2 121.92L406.62 121.96Z" id="b9MsPMCQI"></path>
    </defs>
    <g>
        <g>
            <use xlink:href="#b9MsPMCQI" opacity="1" fill="#000000" fill-opacity="1"></use>
            <g>
                <use xlink:href="#b9MsPMCQI" opacity="1" fill-opacity="0" stroke="#000000" stroke-width="1" stroke-opacity="0"></use>
            </g>
        </g>
    </g>
</svg>